<svg width="16" height="17" viewBox="0 0 16 17" fill="none" xmlns="http://www.w3.org/2000/svg">
<path fill-rule="evenodd" clip-rule="evenodd" d="M14.686 6.589L14.904 4.493L12.979 3.636C12.9162 3.60805 12.8659 3.55782 12.838 3.495L11.981 1.569L9.885 1.789C9.81679 1.79575 9.74848 1.77725 9.693 1.737L7.987 0.5L6.28 1.737C6.22465 1.77666 6.15675 1.79479 6.089 1.788L3.992 1.57L3.136 3.496C3.10801 3.55855 3.05775 3.60846 2.995 3.636L1.069 4.494L1.289 6.59C1.29569 6.65789 1.27718 6.72587 1.237 6.781L0 8.487L1.237 10.193C1.2769 10.2486 1.29504 10.3169 1.288 10.385L1.069 12.481L2.995 13.338C3.05727 13.3659 3.1071 13.4157 3.135 13.478L3.992 15.404L6.089 15.185L6.116 15.184C6.175 15.184 6.232 15.202 6.279 15.237L7.987 16.474L9.693 15.237C9.74835 15.1965 9.81677 15.178 9.885 15.185L11.981 15.405L12.838 13.479C12.8656 13.4163 12.9155 13.3661 12.978 13.338L14.904 12.481L14.686 10.385C14.6787 10.3169 14.6968 10.2485 14.737 10.193L15.974 8.487L14.737 6.78C14.6971 6.72477 14.6789 6.65677 14.686 6.589Z" fill="#0065FF"/>
</svg>
