<svg width="15" height="19" viewBox="0 0 15 19" fill="none" xmlns="http://www.w3.org/2000/svg">
<path d="M10.7267 1.81578C10.8941 1.59786 11.0928 1.42499 11.3115 1.30706C11.5302 1.18912 11.7647 1.12842 12.0014 1.12842C12.2381 1.12842 12.4725 1.18912 12.6912 1.30706C12.9099 1.42499 13.1086 1.59786 13.276 1.81578C13.4434 2.03369 13.5762 2.2924 13.6668 2.57713C13.7574 2.86185 13.804 3.16702 13.804 3.4752C13.804 3.78339 13.7574 4.08855 13.6668 4.37328C13.5762 4.658 13.4434 4.91671 13.276 5.13463L4.67223 16.3358L1.16699 17.5803L2.12297 13.0169L10.7267 1.81578Z" stroke="#808080" stroke-width="1.6" stroke-linecap="round" stroke-linejoin="round"/>
</svg>
