<svg width="16" height="17" viewBox="0 0 16 17" fill="none" xmlns="http://www.w3.org/2000/svg">
<path d="M15.3338 8.48598C15.3338 9.45798 15.1552 10.3753 14.7978 11.2373C14.4531 12.0804 13.9536 12.8514 13.3252 13.5106C12.6954 14.1674 11.9521 14.705 11.1312 15.0973C10.2528 15.5213 9.29642 15.7595 8.32182 15.7973C8.27915 15.8026 8.23849 15.8046 8.20049 15.8046H8.00049C6.99049 15.8046 6.03982 15.6113 5.14849 15.226C4.27899 14.8545 3.48823 14.3208 2.81849 13.6533C2.15224 12.9854 1.6186 12.1973 1.24582 11.3306C0.857592 10.4329 0.660522 9.46409 0.667154 8.48598C0.667154 7.47531 0.860488 6.52731 1.24582 5.64131C1.61873 4.7744 2.1526 3.98604 2.81915 3.31798C3.4887 2.65061 4.27923 2.11687 5.14849 1.74531C6.04898 1.3575 7.02006 1.16047 8.00049 1.16664H8.20049C8.23849 1.16664 8.27915 1.16931 8.32182 1.17331C9.2962 1.21117 10.2523 1.44946 11.1305 1.87331C11.9698 2.27931 12.7012 2.80798 13.3252 3.46131C13.9498 4.11398 14.4405 4.87131 14.7978 5.73398C15.1552 6.59664 15.3338 7.51398 15.3338 8.48598ZM13.9758 10.8446C14.2716 10.0936 14.4221 9.29318 14.4192 8.48598C14.4192 8.04731 14.3758 7.62064 14.2905 7.20598C14.2081 6.80265 14.0885 6.40785 13.9332 6.02664L14.1045 6.49864C14.0758 6.50798 13.8972 6.55598 13.5685 6.64131C13.2398 6.72798 12.7225 6.81331 12.0172 6.89864C12.0458 7.15598 12.0698 7.41598 12.0892 7.67864C12.1312 8.28566 12.1265 8.89501 12.0752 9.50131C12.0458 9.83464 12.0125 10.158 11.9745 10.4726C12.5278 10.5393 12.9658 10.6086 13.2898 10.68C13.6138 10.7513 13.8425 10.8066 13.9758 10.8446ZM4.75582 8.48598C4.75582 8.81931 4.76982 9.14331 4.79849 9.45798C4.82715 9.77198 4.86515 10.082 4.91249 10.3866C5.31474 10.3563 5.71746 10.3325 6.12049 10.3153C6.55382 10.2966 7.02382 10.282 7.52849 10.2726V7.09931C6.63641 7.10113 5.74461 7.06777 4.85515 6.99931C4.82715 7.23731 4.80315 7.47998 4.78382 7.72798C4.76515 7.97598 4.75582 8.22798 4.75582 8.48598ZM8.44382 2.13931V6.19865C8.89888 6.19024 9.35381 6.17579 9.80849 6.15531C10.1927 6.13822 10.5765 6.11443 10.9598 6.08398C10.8531 5.59575 10.7121 5.11567 10.5378 4.64731C10.3864 4.23517 10.1925 3.83992 9.95915 3.46798C9.76127 3.15066 9.52056 2.86217 9.24382 2.61064C8.98715 2.38198 8.71982 2.22398 8.44382 2.13864V2.13931ZM7.52849 2.15264C7.25249 2.23931 6.98582 2.39864 6.72849 2.63198C6.47115 2.86531 6.23515 3.15131 6.02049 3.48931C5.78991 3.86045 5.59611 4.2532 5.44182 4.66198C5.26436 5.12486 5.12108 5.60014 5.01315 6.08398C5.36515 6.11265 5.75115 6.13664 6.17049 6.15531C6.59049 6.17464 7.04249 6.18864 7.52849 6.19865V2.15264ZM7.52849 11.1873C7.06182 11.1966 6.62849 11.2086 6.22849 11.2233C5.82782 11.2373 5.45582 11.2586 5.11315 11.2873C5.22715 11.7446 5.37049 12.1713 5.54182 12.5673C5.71315 12.9626 5.90382 13.3126 6.11382 13.6173C6.32315 13.9226 6.54715 14.1773 6.78515 14.3826C7.00208 14.5751 7.25461 14.7233 7.52849 14.8186V11.1873ZM8.44382 14.8326C8.72037 14.7455 8.97578 14.6018 9.19382 14.4106C9.45346 14.1873 9.68195 13.9301 9.87315 13.646C10.0825 13.3413 10.2712 12.9886 10.4378 12.5886C10.6045 12.1886 10.7452 11.7546 10.8592 11.2873C10.5258 11.2586 10.1565 11.2373 9.75182 11.2233C9.34649 11.2086 8.91049 11.1966 8.44382 11.1873V14.8326ZM8.44382 10.2726C8.94849 10.282 9.41782 10.2966 9.85182 10.3153C10.2852 10.3346 10.6832 10.3586 11.0452 10.3866C11.0932 10.082 11.1312 9.77198 11.1598 9.45798C11.211 8.88263 11.2157 8.30408 11.1738 7.72798C11.1548 7.47977 11.131 7.23195 11.1025 6.98464C10.7405 7.02264 10.3378 7.05131 9.89449 7.07064C9.45115 7.08931 8.96782 7.09931 8.44382 7.09931V10.2726ZM13.7612 5.65531C13.429 4.98042 12.9788 4.37037 12.4318 3.85398C11.8847 3.33371 11.251 2.91295 10.5592 2.61064C10.8545 3.02998 11.1165 3.52798 11.3458 4.10398C11.5745 4.68064 11.7552 5.31198 11.8885 5.99864C12.4605 5.93198 12.8992 5.86264 13.2038 5.79131C13.5092 5.71931 13.6945 5.67464 13.7612 5.65531ZM5.81382 2.46664C5.41382 2.60998 5.03715 2.78864 4.68449 3.00264C4.33295 3.21631 4.00257 3.46298 3.69782 3.73931C3.39315 4.01531 3.11449 4.31798 2.86182 4.64664C2.61028 4.97405 2.39251 5.32607 2.21182 5.69731C2.33582 5.73531 2.55449 5.78331 2.86915 5.84064C3.18382 5.89731 3.60249 5.95464 4.12715 6.01198C4.28915 5.27864 4.51782 4.61131 4.81382 4.01064C5.10849 3.41064 5.44249 2.89598 5.81382 2.46664ZM1.88249 6.55598C1.78715 6.86064 1.71315 7.17531 1.66049 7.49931C1.60787 7.82556 1.58156 8.15551 1.58182 8.48598C1.58182 8.89531 1.61782 9.29331 1.68915 9.67931C1.76049 10.0653 1.86782 10.4346 2.01115 10.7873C2.15382 10.7586 2.39182 10.7133 2.72582 10.6513C3.05915 10.5893 3.49249 10.53 4.02649 10.4726C3.96915 10.158 3.92649 9.83398 3.89782 9.50064C3.86914 9.16319 3.85491 8.82465 3.85515 8.48598C3.85515 8.21931 3.86182 7.95198 3.87649 7.68531C3.89049 7.41864 3.91649 7.16131 3.95515 6.91331C3.33515 6.84664 2.85649 6.77731 2.51849 6.70598C2.30454 6.66465 2.09236 6.61461 1.88249 6.55598ZM2.41115 11.6306C2.60182 11.964 2.81849 12.276 3.06182 12.5666C3.54622 13.1471 4.12637 13.6405 4.77715 14.0253C5.10503 14.2202 5.45222 14.3806 5.81315 14.504C5.44711 14.0887 5.13713 13.6272 4.89115 13.1313C4.61982 12.598 4.39782 12.0073 4.22649 11.3586C3.77849 11.4066 3.40649 11.4566 3.11182 11.5093C2.81649 11.5613 2.58249 11.602 2.41115 11.6306ZM10.5592 14.3606C11.1852 14.0863 11.764 13.7151 12.2745 13.2606C12.7872 12.8056 13.2219 12.2696 13.5612 11.674C13.3484 11.6208 13.1338 11.5755 12.9178 11.538C12.5478 11.4729 12.1761 11.418 11.8032 11.3733C11.6698 11.9733 11.4958 12.5266 11.2812 13.0313C11.0874 13.4984 10.8455 13.9439 10.5592 14.3606Z" fill="#4D6182"/>
</svg>
