<svg width="200" height="200" viewBox="0 0 200 200" fill="none" xmlns="http://www.w3.org/2000/svg">
<path d="M200 152.96H0V153.06H200V152.96Z" fill="#EBEBEB"/>
<path d="M144.8 156.136H131.552V156.236H144.8V156.136Z" fill="#EBEBEB"/>
<path d="M176.368 156.188H159.912V156.288H176.368V156.188Z" fill="#EBEBEB"/>
<path d="M150.38 158.8H142.704V158.9H150.38V158.8Z" fill="#EBEBEB"/>
<path d="M90.2676 158.044H69.5996V158.144H90.2676V158.044Z" fill="#EBEBEB"/>
<path d="M66.0402 158.044H52.2842V158.144H66.0402V158.044Z" fill="#EBEBEB"/>
<path d="M44.0524 156.356H25.3164V156.456H44.0524V156.356Z" fill="#EBEBEB"/>
<path d="M94.8002 135.12H17.5642C16.9591 135.119 16.3792 134.878 15.9517 134.45C15.5243 134.021 15.2842 133.441 15.2842 132.836V24.264C15.2894 23.6624 15.5319 23.0872 15.9588 22.6633C16.3857 22.2394 16.9626 22.001 17.5642 22H94.8002C95.4059 22 95.9869 22.2406 96.4152 22.669C96.8435 23.0973 97.0842 23.6782 97.0842 24.284V132.836C97.0842 133.442 96.8435 134.023 96.4152 134.451C95.9869 134.879 95.4059 135.12 94.8002 135.12ZM17.5642 22.08C16.9856 22.0811 16.4312 22.3116 16.0224 22.7211C15.6137 23.1306 15.3842 23.6855 15.3842 24.264V132.836C15.3842 133.415 15.6137 133.969 16.0224 134.379C16.4312 134.788 16.9856 135.019 17.5642 135.02H94.8002C95.3791 135.019 95.934 134.789 96.3433 134.379C96.7527 133.97 96.9831 133.415 96.9842 132.836V24.264C96.9831 23.6851 96.7527 23.1302 96.3433 22.7208C95.934 22.3115 95.3791 22.0811 94.8002 22.08H17.5642Z" fill="#EBEBEB"/>
<path d="M181.324 135.12H104.084C103.478 135.119 102.898 134.878 102.47 134.45C102.042 134.022 101.801 133.441 101.8 132.836V24.264C101.806 23.662 102.049 23.0868 102.477 22.663C102.904 22.2392 103.482 22.001 104.084 22H181.324C181.925 22.0021 182.501 22.2409 182.927 22.6647C183.353 23.0885 183.595 23.6631 183.6 24.264V132.836C183.6 133.44 183.36 134.02 182.934 134.448C182.507 134.876 181.928 135.118 181.324 135.12ZM104.084 22.08C103.505 22.0811 102.95 22.3115 102.541 22.7208C102.131 23.1302 101.901 23.6851 101.9 24.264V132.836C101.901 133.415 102.131 133.97 102.541 134.379C102.95 134.789 103.505 135.019 104.084 135.02H181.324C181.903 135.019 182.458 134.789 182.867 134.379C183.276 133.97 183.507 133.415 183.508 132.836V24.264C183.507 23.6851 183.276 23.1302 182.867 22.7208C182.458 22.3115 181.903 22.0811 181.324 22.08H104.084Z" fill="#EBEBEB"/>
<path d="M69.6281 15.256H13.9121V123.952H69.6281V15.256Z" fill="#F5F5F5"/>
<path d="M40.7996 123.956H26.2676V59.012L40.7996 54.264V123.956Z" fill="#EBEBEB"/>
<path d="M52.9324 123.956H38.4004V74.568L52.9324 69.82V123.956Z" fill="#E6E6E6"/>
<path d="M51.1955 73.188H47.7275V61.404L51.1955 60.272V73.188Z" fill="#E6E6E6"/>
<path d="M127.74 15.256H72.0244V123.952H127.74V15.256Z" fill="#F5F5F5"/>
<path d="M88.3804 85.348H72.0244V123.956H88.3804V85.348Z" fill="#E6E6E6"/>
<path d="M186.092 15.256H130.376V123.952H186.092V15.256Z" fill="#F5F5F5"/>
<path d="M173.956 123.956H162.132V45.808L173.956 41.056V123.956Z" fill="#EBEBEB"/>
<path d="M186.088 123.956H171.556V74.568L186.088 69.82V123.956Z" fill="#E6E6E6"/>
<path d="M134 123.952H163.064V85.556L134 81.864V123.952Z" fill="#E6E6E6"/>
<path d="M184.356 73.188H182.62V61.404L184.356 60.272V73.188Z" fill="#E6E6E6"/>
<path d="M178.684 76.024H176.952V64.24L178.684 63.104V76.024Z" fill="#E6E6E6"/>
<path d="M22.6235 91.688H29.2435V123.956H18.3115V96C18.3115 94.8564 18.7658 93.7596 19.5745 92.9509C20.3831 92.1423 21.4799 91.688 22.6235 91.688Z" fill="#EBEBEB"/>
<path d="M69.6275 92.82H55.1035V123.956H69.6275V92.82Z" fill="#EBEBEB"/>
<path d="M102.904 97.644L88.3799 92.82V123.956H102.904V97.644Z" fill="#EBEBEB"/>
<path d="M108.404 97.644L93.8799 92.82V123.956H108.404V97.644Z" fill="#E6E6E6"/>
<path d="M108.404 92.7L122.928 87.876V123.956H108.404V92.7Z" fill="#F0F0F0"/>
<path opacity="0.5" d="M44.3402 123.952H29.3682L60.2282 15.256H75.2002L44.3402 123.952Z" fill="white"/>
<path opacity="0.5" d="M89.22 123.952H74.248L105.104 15.256H120.08L89.22 123.952Z" fill="white"/>
<path opacity="0.5" d="M107.96 123.952H92.9883L123.848 15.256H138.82L107.96 123.952Z" fill="white"/>
<path opacity="0.5" d="M144 123.952H136.516L167.376 15.256H174.86L144 123.952Z" fill="white"/>
<path d="M44.3359 133.2C48.6559 110.032 60.0399 99.16 69.7279 93.624C60.4479 102.4 54.1359 132.764 44.3359 133.2Z" fill="#FAFAFA"/>
<path d="M34.8679 131.376C31.6679 113.912 23.9759 107.08 17.4639 104.176C23.7479 109.672 28.3479 132.476 34.8679 131.376Z" fill="#FAFAFA"/>
<path d="M40.4597 136C39.2277 110.88 29.6597 99.852 21.0557 94.556C28.8637 103.46 31.0957 136.34 40.4597 136Z" fill="#FAFAFA"/>
<path d="M40.46 133.844C42.46 108.604 53.132 96.792 62.62 90.796C53.908 100.332 50.62 133.42 40.46 133.844Z" fill="#FAFAFA"/>
<path d="M42.0364 137.792C45.2364 111.864 38.1604 96.24 30.9844 86.848C36.8004 99.496 33.1684 133.728 42.0364 137.792Z" fill="#FAFAFA"/>
<path d="M52 129.904C60.076 114.8 70.208 111.2 78 110.832C69.756 113.696 58.712 133.272 52 129.904Z" fill="#FAFAFA"/>
<path d="M50.3242 130.476C55.4162 113.36 65.0562 106.076 72.9762 102.708C65.1242 108.572 57.9522 130.956 50.3242 130.476Z" fill="#FAFAFA"/>
<path d="M41.3884 137.876C50.0924 111.032 46.1604 94.48 40.8244 84.4C44.0764 97.812 33.2004 133.28 41.3884 137.876Z" fill="#FAFAFA"/>
<path d="M26.6201 128.224V145.112C26.6201 149.428 34.4081 152.96 43.9321 152.96C53.4521 152.96 61.2441 149.428 61.2441 145.112V128.224H26.6201Z" fill="#F5F5F5"/>
<path d="M160 139.384C159.044 123.452 152.184 115.976 146.028 112.184C151.644 118.204 153.34 139.092 160 139.384Z" fill="#E0E0E0"/>
<path d="M166.656 138.14C170.344 126.14 176.216 121.428 180.928 119.428C176.148 123.2 171.028 138.892 166.656 138.14Z" fill="#E0E0E0"/>
<path d="M162.428 141.32C165.44 124.048 172.944 116.464 179.296 112.824C173.2 118.94 168.8 141.548 162.428 141.32Z" fill="#E0E0E0"/>
<path d="M162.616 139.836C163.416 122.476 157.136 114.356 151.156 110.236C156.3 116.8 155.692 139.544 162.616 139.836Z" fill="#E0E0E0"/>
<path d="M161.2 142.548C161.244 124.72 167.444 113.976 173.172 107.516C168.1 116.216 167.62 139.752 161.2 142.548Z" fill="#E0E0E0"/>
<path d="M155.06 137.124C150.824 126.724 144.196 124.26 138.892 124.008C144.288 125.976 150.164 139.44 155.06 137.124Z" fill="#E0E0E0"/>
<path d="M156.148 137.52C154.148 125.748 148.168 120.752 143.036 118.424C147.904 122.456 150.884 137.848 156.148 137.52Z" fill="#E0E0E0"/>
<path d="M161.632 142.608C157.988 124.148 162.112 112.768 166.636 105.84C163.252 115.056 167.624 139.444 161.632 142.608Z" fill="#E0E0E0"/>
<path d="M171.704 136V147.6C171.704 150.564 166.356 152.988 159.82 152.988C153.284 152.988 147.94 150.564 147.94 147.6V136H171.704Z" fill="#F5F5F5"/>
<path d="M100 171.024C142.833 171.024 177.556 168.997 177.556 166.496C177.556 163.995 142.833 161.968 100 161.968C57.1673 161.968 22.4443 163.995 22.4443 166.496C22.4443 168.997 57.1673 171.024 100 171.024Z" fill="#F5F5F5"/>
<path d="M106.8 51.556V56.8C106.799 57.1699 106.651 57.5244 106.39 57.7859C106.128 58.0475 105.774 58.1949 105.404 58.196H92.5356C92.1657 58.1949 91.8113 58.0475 91.5497 57.7859C91.2881 57.5244 91.1407 57.1699 91.1396 56.8V37.788C91.1428 37.4195 91.2912 37.067 91.5525 36.8072C91.8138 36.5474 92.1671 36.401 92.5356 36.4H105.384C105.568 36.3979 105.751 36.4321 105.922 36.5008C106.092 36.5695 106.248 36.6712 106.38 36.8001C106.511 36.9291 106.616 37.0827 106.688 37.2522C106.76 37.4217 106.798 37.6038 106.8 37.788V46.084" fill="white"/>
<path d="M105.384 58.424H92.5355C92.1112 58.424 91.7042 58.2554 91.4042 57.9554C91.1041 57.6553 90.9355 57.2483 90.9355 56.824V37.788C90.9355 37.3636 91.1041 36.9567 91.4042 36.6566C91.7042 36.3566 92.1112 36.188 92.5355 36.188H105.384C105.808 36.188 106.215 36.3566 106.515 36.6566C106.815 36.9567 106.984 37.3636 106.984 37.788V46.084H106.56V37.788C106.56 37.4697 106.433 37.1645 106.208 36.9395C105.983 36.7144 105.678 36.588 105.36 36.588H92.5355C92.2173 36.588 91.9121 36.7144 91.687 36.9395C91.462 37.1645 91.3355 37.4697 91.3355 37.788V56.8C91.3355 57.1182 91.462 57.4235 91.687 57.6485C91.9121 57.8736 92.2173 58 92.5355 58H105.384C105.702 58 106.007 57.8736 106.232 57.6485C106.457 57.4235 106.584 57.1182 106.584 56.8V51.556H107.008V56.8C107.011 57.0141 106.971 57.2268 106.891 57.4253C106.81 57.6238 106.691 57.8041 106.539 57.9555C106.388 58.107 106.207 58.2265 106.009 58.307C105.81 58.3874 105.598 58.4272 105.384 58.424Z" fill="#88FF99"/>
<path d="M97.9991 55.6C98.2628 55.4349 98.5367 55.2866 98.8191 55.156C98.9496 55.0969 99.0831 55.0448 99.2191 55C99.3696 54.9387 99.529 54.9022 99.6911 54.892L99.5271 54.8C99.4991 54.756 99.4831 54.868 99.4751 54.896L99.4191 55.036C99.3721 55.1351 99.3385 55.24 99.3191 55.348C99.3087 55.3864 99.3077 55.4268 99.3162 55.4658C99.3247 55.5047 99.3425 55.541 99.368 55.5716C99.3935 55.6022 99.426 55.6262 99.4627 55.6416C99.4995 55.657 99.5394 55.6633 99.5791 55.66C99.9986 55.5849 100.399 55.4286 100.759 55.2H100.611C100.655 55.2 100.707 55.26 100.751 55.276C100.817 55.2996 100.885 55.3131 100.955 55.316C101.111 55.316 101.267 55.292 101.423 55.316C101.667 55.34 101.663 54.96 101.423 54.94C101.259 54.94 101.087 54.976 100.927 54.94C100.767 54.904 100.719 54.792 100.551 54.868C100.383 54.944 100.247 55.044 100.083 55.112C100.007 55.1441 99.9299 55.1722 99.8511 55.196L99.6991 55.24C99.6551 55.24 99.5751 55.24 99.6391 55.304L99.6951 55.436C99.6951 55.18 99.9671 54.94 99.8951 54.676C99.8231 54.412 99.4951 54.528 99.2991 54.576C98.7679 54.73 98.2624 54.9618 97.7991 55.264C97.7556 55.2889 97.7238 55.3301 97.7107 55.3785C97.6976 55.4269 97.7042 55.4785 97.7291 55.522C97.7541 55.5655 97.7952 55.5973 97.8436 55.6104C97.892 55.6235 97.9436 55.6169 97.9871 55.592L97.9991 55.6Z" fill="#E0E0E0"/>
<path d="M105.288 39.236H92.6279V39.656H105.288V39.236Z" fill="#E0E0E0"/>
<path d="M103.856 42.216H92.6279V42.636H103.856V42.216Z" fill="#E0E0E0"/>
<path d="M105.288 45.2H92.6279V45.62H105.288V45.2Z" fill="#E0E0E0"/>
<path d="M96.1079 48.184H92.6279V48.604H96.1079V48.184Z" fill="#E0E0E0"/>
<path d="M102.195 48.184H97.5674V48.604H102.195V48.184Z" fill="#E0E0E0"/>
<path d="M105.288 51.164H92.6279V51.584H105.288V51.164Z" fill="#E0E0E0"/>
<path d="M94.368 56.492C93.9819 56.492 93.6045 56.3775 93.2835 56.163C92.9625 55.9486 92.7123 55.6437 92.5646 55.287C92.4169 54.9303 92.3782 54.5379 92.4535 54.1592C92.5288 53.7805 92.7147 53.4327 92.9877 53.1597C93.2607 52.8868 93.6085 52.7008 93.9872 52.6255C94.3658 52.5502 94.7583 52.5889 95.115 52.7366C95.4717 52.8843 95.7766 53.1345 95.991 53.4555C96.2055 53.7765 96.32 54.1539 96.32 54.54C96.32 55.0577 96.1144 55.5542 95.7483 55.9203C95.3822 56.2864 94.8857 56.492 94.368 56.492ZM94.368 53.012C94.0648 53.012 93.7685 53.102 93.5165 53.2705C93.2644 53.439 93.0681 53.6785 92.9523 53.9587C92.8364 54.2388 92.8063 54.5471 92.8657 54.8444C92.9252 55.1417 93.0715 55.4146 93.2861 55.6287C93.5008 55.8428 93.7742 55.9884 94.0716 56.0471C94.369 56.1057 94.6772 56.0748 94.9571 55.9582C95.2369 55.8417 95.4759 55.6447 95.6438 55.3922C95.8116 55.1398 95.9008 54.8432 95.9 54.54C95.899 54.1344 95.7371 53.7458 95.4499 53.4593C95.1627 53.1729 94.7736 53.012 94.368 53.012Z" fill="#88FF99"/>
<path d="M95.5198 54.54C95.5206 54.768 95.4537 54.9911 95.3276 55.1811C95.2015 55.371 95.0219 55.5193 94.8114 55.6071C94.601 55.6949 94.3693 55.7183 94.1455 55.6743C93.9218 55.6303 93.7162 55.5209 93.5547 55.36C93.3931 55.199 93.283 54.9938 93.2382 54.7702C93.1935 54.5466 93.2161 54.3148 93.3031 54.104C93.3902 53.8933 93.5379 53.7132 93.7274 53.5864C93.9169 53.4596 94.1398 53.392 94.3678 53.392C94.6727 53.392 94.9651 53.5128 95.181 53.728C95.3969 53.9431 95.5188 54.2351 95.5198 54.54Z" fill="#88FF99"/>
<path d="M102.031 54.196C102.099 53.6481 102.293 53.1236 102.599 52.664C102.887 52.228 103.235 51.864 103.555 51.436C104.199 50.636 104.867 49.836 105.555 49.036C106.907 47.464 108.279 45.908 109.775 44.448C109.813 44.4154 109.862 44.397 109.912 44.3961C109.962 44.3952 110.011 44.4118 110.05 44.443C110.089 44.4742 110.117 44.5182 110.127 44.5673C110.137 44.6163 110.13 44.6675 110.107 44.712C109.027 46.5 107.823 48.192 106.599 49.868C105.983 50.7 105.359 51.528 104.719 52.344C104.395 52.744 104.099 53.176 103.739 53.544C103.362 53.9471 102.897 54.2567 102.379 54.448C102.317 54.4688 102.248 54.4646 102.189 54.4363C102.129 54.408 102.083 54.3577 102.059 54.296C102.043 54.2648 102.034 54.2309 102.031 54.196Z" fill="#88FF99"/>
<path d="M103.066 68.3594L100.438 70.6519L100.714 70.9684L103.342 68.6759L103.066 68.3594Z" fill="#88FF99"/>
<path d="M99.9359 64.8101L98.8242 69.7711L99.2341 69.863L100.346 64.902L99.9359 64.8101Z" fill="#88FF99"/>
<path d="M96.0204 68.6115L95.7139 68.8986L97.1766 70.4607L97.4832 70.1736L96.0204 68.6115Z" fill="#88FF99"/>
<path d="M126.825 163.316H123.421L123.005 155.436H126.405L126.825 163.316Z" fill="#7F3E3B"/>
<path d="M143.984 163.316H140.58L139.248 155.436H142.648L143.984 163.316Z" fill="#7F3E3B"/>
<path d="M140.361 162.92H144.181C144.247 162.919 144.312 162.942 144.363 162.984C144.415 163.027 144.449 163.086 144.461 163.152L144.989 166.176C144.999 166.252 144.994 166.329 144.972 166.402C144.951 166.475 144.914 166.543 144.864 166.601C144.814 166.658 144.752 166.705 144.682 166.736C144.612 166.768 144.537 166.784 144.461 166.784C143.129 166.76 142.485 166.68 140.801 166.68C139.769 166.68 136.981 166.788 135.553 166.788C134.125 166.788 134.005 165.376 134.593 165.248C137.245 164.676 138.921 163.884 139.793 163.132C139.95 162.995 140.152 162.92 140.361 162.92Z" fill="#263238"/>
<path d="M123.336 162.92H127.048C127.115 162.919 127.18 162.942 127.231 162.984C127.282 163.027 127.317 163.086 127.328 163.152L127.856 166.176C127.868 166.251 127.864 166.328 127.844 166.401C127.823 166.475 127.787 166.543 127.737 166.601C127.688 166.658 127.626 166.705 127.557 166.736C127.488 166.768 127.412 166.784 127.336 166.784C126 166.76 124.064 166.68 122.38 166.68C120.412 166.68 119.912 166.788 117.6 166.788C116.204 166.788 115.884 165.376 116.476 165.248C119.164 164.668 120.136 164.604 122.5 163.188C122.749 163.024 123.038 162.932 123.336 162.92Z" fill="#263238"/>
<path d="M123.229 57.364L118.581 56C118.581 56 113.845 67.252 112.241 68C110.061 69 104.241 72.068 101.777 73.516C101.609 74.072 101.605 75.596 101.873 76.036C105.909 75.716 114.189 72.976 115.781 71.448C119.413 67.96 123.229 57.364 123.229 57.364Z" fill="#7F3E3B"/>
<path d="M124.636 55.24C125.956 58.184 116.892 71.096 116.892 71.096L112.492 66.528C112.492 66.528 116.384 56.756 118.492 53.008C120.644 49.156 123.2 52 124.636 55.24Z" fill="#88FF99"/>
<path opacity="0.4" d="M124.636 55.24C125.956 58.184 116.892 71.096 116.892 71.096L112.492 66.528C112.492 66.528 116.384 56.756 118.492 53.008C120.644 49.156 123.2 52 124.636 55.24Z" fill="white"/>
<path d="M112.172 66.124C111.896 66.288 111.304 67.364 111.172 67.9C111.04 68.436 114.136 72.572 115.34 72.404C116.544 72.236 117.92 71.064 118.168 70.432C118.416 69.8 112.752 65.784 112.172 66.124Z" fill="#88FF99"/>
<path d="M102.292 73.26L99.4922 72.748L99.6602 76.748C99.6602 76.748 100.644 77.148 102.764 75.836L102.292 73.26Z" fill="#7F3E3B"/>
<path d="M96.1084 74.08L96.6204 76.54L99.6404 76.764L99.4724 72.752L96.1084 74.08Z" fill="#7F3E3B"/>
<path opacity="0.2" d="M123.005 155.44L123.221 159.5H126.621L126.409 155.44H123.005Z" fill="black"/>
<path opacity="0.2" d="M142.652 155.44H139.248L139.936 159.5H143.34L142.652 155.44Z" fill="black"/>
<path d="M120.312 51.224C120.312 51.224 115.772 62.912 118.676 82.044H136.872C137.128 79.244 136.072 64.208 139.38 51.048C137.381 50.658 135.358 50.4002 133.324 50.276C130.748 50.1279 128.165 50.1279 125.588 50.276C123.808 50.4571 122.044 50.774 120.312 51.224Z" fill="#88FF99"/>
<path opacity="0.2" d="M120.312 51.224C120.312 51.224 115.772 62.912 118.676 82.044H136.872C137.128 79.244 136.072 64.208 139.38 51.048C137.381 50.658 135.358 50.4002 133.324 50.276C130.748 50.1279 128.165 50.1279 125.588 50.276C123.808 50.4571 122.044 50.774 120.312 51.224Z" fill="black"/>
<path opacity="0.2" d="M135.272 54.296C134.872 56.464 135.3 61.644 137.08 67.632C137.297 62.4912 137.966 57.3794 139.08 52.356V52.332C137.872 52.208 135.66 52.264 135.272 54.296Z" fill="black"/>
<path d="M132.661 43.044C132.053 45.532 131.665 48.616 133.325 50.276C133.325 50.276 132.205 52.804 127.581 52.804C123.353 52.804 125.581 50.276 125.581 50.276C128.381 49.616 128.409 46.184 128.017 44.248L132.661 43.044Z" fill="#7F3E3B"/>
<path d="M127.601 52.8C130.325 53.652 130.865 54.524 130.865 54.524C130.865 54.524 134.261 53.144 134.133 50.152C133.72 49.8471 133.275 49.5895 132.805 49.384C132.805 49.384 132.517 51.6 127.601 52.8Z" fill="#88FF99"/>
<path d="M127.601 52.8C126.073 52.944 124.801 54.252 124.801 54.252C124.801 54.252 123.829 53.232 124.761 50.272C124.761 50.272 125.669 49.964 126.421 49.804C126.401 49.808 125.789 52.16 127.601 52.8Z" fill="#88FF99"/>
<path opacity="0.2" d="M128.025 44.252C128.257 45.384 128.345 47.052 127.809 48.336C128.246 48.2644 128.67 48.1296 129.069 47.936C130.669 47.2 131.493 46.036 132.381 44.336C132.461 43.892 132.557 43.46 132.661 43.044L128.025 44.252Z" fill="black"/>
<path d="M127.484 35.092C126.396 35.448 123.964 37.536 126.284 38.588C128.604 39.64 129.38 34.476 127.484 35.092Z" fill="#263238"/>
<path d="M134.824 40C133.764 43.264 133.308 45.2 131.224 46.56C128.092 48.56 124.472 46.16 124.556 42.712C124.628 39.588 126.348 34.776 129.872 34.156C133.396 33.536 135.884 36.748 134.824 40Z" fill="#7F3E3B"/>
<path d="M129.713 36.428C127.913 36.732 126.413 36.636 125.869 35.14C125.325 33.644 127.801 32.076 129.509 32.78C130.769 31.468 134.209 32.476 134.653 33.736C136.653 33.608 138.545 35.912 137.189 37.092C137.495 37.2826 137.754 37.5405 137.946 37.8462C138.139 38.152 138.258 38.4974 138.297 38.8564C138.336 39.2154 138.292 39.5785 138.169 39.918C138.046 40.2576 137.848 40.5647 137.589 40.816C138.173 42.552 136.069 44.284 134.409 43.58C132.773 43.092 131.881 43.492 131.653 42.436C131.425 41.38 132.001 40.36 133.393 40.156C132.689 39.316 132.517 37.988 132.993 37.416C131.309 38.18 129.929 37.22 129.713 36.428Z" fill="#263238"/>
<path d="M127.552 43.464C127.87 43.4907 128.191 43.4543 128.495 43.3568C128.799 43.2593 129.081 43.1027 129.324 42.896C129.339 42.8804 129.347 42.8596 129.347 42.838C129.347 42.8164 129.339 42.7956 129.324 42.78C129.317 42.7722 129.308 42.766 129.299 42.7618C129.289 42.7576 129.278 42.7554 129.268 42.7554C129.257 42.7554 129.247 42.7576 129.237 42.7618C129.228 42.766 129.219 42.7722 129.212 42.78C128.945 43.0014 128.632 43.1595 128.295 43.2426C127.958 43.3258 127.607 43.3317 127.268 43.26C127.247 43.2564 127.225 43.261 127.207 43.2729C127.189 43.2848 127.177 43.3031 127.172 43.324C127.169 43.334 127.168 43.3446 127.17 43.3549C127.171 43.3652 127.175 43.3751 127.181 43.3839C127.186 43.3926 127.194 43.4 127.203 43.4056C127.212 43.4111 127.222 43.4147 127.232 43.416C127.338 43.4374 127.445 43.4534 127.552 43.464Z" fill="#263238"/>
<path d="M135.013 44.508C134.332 45.0396 133.472 45.2876 132.613 45.2C131.497 45.076 131.413 43.976 132.113 43.144C132.745 42.392 134.089 41.544 135.021 42.096C135.953 42.648 135.849 43.844 135.013 44.508Z" fill="#7F3E3B"/>
<path d="M130.637 82.044C130.637 82.044 130.173 86.324 129.581 92.12C128.901 98.692 128.057 107.224 127.521 113.72C127.521 113.752 127.521 113.78 127.521 113.808C127.417 115.044 127.325 116.208 127.249 117.256C126.489 127.86 127.849 158.708 127.849 158.708H122.081C122.081 158.708 116.769 127.228 116.901 116.436C117.025 106.064 118.673 82.036 118.673 82.036L130.637 82.044Z" fill="#88FF99"/>
<path d="M128.32 156.456C128.348 156.456 128.22 158.832 128.22 158.832H121.576L121.408 156.224L128.32 156.456Z" fill="#263238"/>
<path opacity="0.2" d="M129.601 92.12C128.921 98.692 128.077 107.224 127.541 113.72C127.541 113.752 127.541 113.78 127.541 113.808C126.273 107.644 125.877 99.98 126.369 87.36L129.601 92.12Z" fill="black"/>
<path d="M125.128 82.044C125.128 82.044 127.784 106.628 129.436 116.368C131.248 127.036 138.4 158.712 138.4 158.712H144.632C144.632 158.712 140.432 127.912 139.608 117.336C138.72 105.872 136.884 82.044 136.884 82.044H125.128Z" fill="#88FF99"/>
<path d="M144.708 156.6C144.736 156.6 144.924 158.832 144.924 158.832H138.076L137.576 156.34L144.708 156.6Z" fill="#263238"/>
<path d="M129.172 39.856C129.1 40.124 128.904 40.312 128.732 40.256C128.56 40.2 128.476 39.968 128.544 39.7C128.612 39.432 128.812 39.244 128.984 39.3C129.156 39.356 129.24 39.6 129.172 39.856Z" fill="#263238"/>
<path d="M126.181 39.2C126.109 39.468 125.913 39.656 125.741 39.6C125.569 39.544 125.485 39.316 125.553 39.044C125.621 38.772 125.821 38.588 125.993 38.644C126.165 38.7 126.249 38.932 126.181 39.2Z" fill="#263238"/>
<path d="M127.577 39.544C127.047 40.2978 126.422 40.9795 125.717 41.572C126.069 42.116 126.917 42.088 126.917 42.088L127.577 39.544Z" fill="#630F0F"/>
<path d="M130.801 39.072C130.777 39.0657 130.755 39.0542 130.736 39.0383C130.718 39.0223 130.703 39.0024 130.693 38.98C130.623 38.795 130.508 38.6303 130.358 38.5005C130.209 38.3707 130.03 38.2798 129.837 38.236C129.816 38.2332 129.796 38.226 129.778 38.215C129.76 38.2041 129.744 38.1894 129.732 38.1721C129.72 38.1548 129.712 38.1352 129.708 38.1145C129.704 38.0938 129.704 38.0725 129.709 38.052C129.717 38.0095 129.741 37.9716 129.776 37.9463C129.811 37.921 129.854 37.9101 129.897 37.916C130.143 37.9663 130.372 38.0777 130.563 38.2399C130.755 38.402 130.903 38.6098 130.993 38.844C131.008 38.8845 131.007 38.9292 130.991 38.9692C130.975 39.0092 130.944 39.0416 130.905 39.06C130.872 39.0755 130.836 39.0798 130.801 39.072Z" fill="#263238"/>
<path d="M125.6 37.832C125.578 37.823 125.558 37.8109 125.54 37.796C125.525 37.7811 125.513 37.7634 125.505 37.7438C125.496 37.7242 125.492 37.7032 125.492 37.682C125.492 37.6608 125.496 37.6398 125.505 37.6202C125.513 37.6006 125.525 37.5829 125.54 37.568C125.709 37.3719 125.922 37.2188 126.162 37.1214C126.402 37.024 126.662 36.9852 126.92 37.008C126.941 37.0108 126.961 37.018 126.979 37.0289C126.997 37.0399 127.012 37.0545 127.024 37.0718C127.036 37.0892 127.045 37.1088 127.049 37.1295C127.053 37.1501 127.053 37.1714 127.048 37.192C127.039 37.2341 127.015 37.2713 126.98 37.2965C126.946 37.3217 126.903 37.3329 126.86 37.328C126.655 37.3128 126.449 37.3462 126.259 37.4255C126.07 37.5047 125.901 37.6275 125.768 37.784C125.747 37.8059 125.72 37.8219 125.69 37.8303C125.661 37.8387 125.63 37.8393 125.6 37.832Z" fill="#263238"/>
<path d="M141.397 55.692L137.101 58.292C137.101 58.292 141.901 68.692 141.873 70.44C141.793 73.704 143.197 80.78 142.817 84.508C143.345 84.696 144.817 84.74 145.281 84.48C146.133 81.108 147.313 72.248 146.973 70.028C146.229 65.2 141.397 55.692 141.397 55.692Z" fill="#7F3E3B"/>
<path d="M139.38 51.048C142.58 51.516 147.14 67.756 147.14 67.756L141.22 70C141.22 70 136.064 61.2 134.8 57.244C133.44 53.116 135.952 50.544 139.38 51.048Z" fill="#88FF99"/>
<path opacity="0.4" d="M139.38 51.048C142.58 51.516 147.14 67.756 147.14 67.756L141.22 70C141.22 70 136.064 61.2 134.8 57.244C133.44 53.116 135.952 50.544 139.38 51.048Z" fill="white"/>
<path d="M139.2 163.516C138.971 163.536 138.743 163.474 138.556 163.34C138.497 163.288 138.452 163.222 138.426 163.148C138.4 163.073 138.394 162.993 138.408 162.916C138.411 162.868 138.426 162.822 138.452 162.782C138.477 162.742 138.514 162.71 138.556 162.688C138.956 162.496 140.008 163.168 140.128 163.248C140.141 163.256 140.152 163.268 140.157 163.283C140.163 163.297 140.164 163.313 140.16 163.328C140.156 163.343 140.148 163.358 140.137 163.369C140.126 163.38 140.111 163.388 140.096 163.392C139.803 163.468 139.502 163.51 139.2 163.516ZM138.732 162.8C138.696 162.798 138.66 162.805 138.628 162.82C138.611 162.829 138.597 162.842 138.587 162.858C138.577 162.874 138.572 162.893 138.572 162.912C138.562 162.965 138.565 163.021 138.582 163.072C138.599 163.124 138.628 163.171 138.668 163.208C138.844 163.364 139.288 163.384 139.868 163.268C139.525 163.037 139.138 162.878 138.732 162.8Z" fill="#88FF99"/>
<path d="M140.081 163.396C140.069 163.399 140.056 163.399 140.045 163.396C139.701 163.208 139.057 162.46 139.149 162.08C139.164 162.021 139.198 161.969 139.245 161.931C139.293 161.894 139.352 161.873 139.413 161.872C139.473 161.864 139.535 161.869 139.593 161.886C139.652 161.903 139.706 161.932 139.753 161.972C140.133 162.296 140.153 163.28 140.153 163.32C140.153 163.335 140.149 163.35 140.142 163.363C140.135 163.376 140.125 163.388 140.113 163.396C140.102 163.398 140.091 163.398 140.081 163.396ZM139.461 162H139.425C139.321 162 139.309 162.06 139.305 162.08C139.249 162.304 139.657 162.88 139.993 163.132C139.991 162.75 139.869 162.377 139.645 162.068C139.594 162.024 139.528 161.999 139.461 162Z" fill="#88FF99"/>
<path d="M121.893 163.516C121.604 163.543 121.314 163.47 121.073 163.308C121.02 163.257 120.98 163.194 120.957 163.124C120.934 163.055 120.929 162.98 120.941 162.908C120.946 162.863 120.961 162.82 120.986 162.782C121.011 162.745 121.045 162.714 121.085 162.692C121.509 162.46 122.845 163.156 122.997 163.236C123.011 163.244 123.022 163.257 123.029 163.272C123.035 163.287 123.037 163.304 123.033 163.32C123.03 163.337 123.022 163.353 123.009 163.365C122.997 163.377 122.982 163.385 122.965 163.388C122.612 163.463 122.253 163.506 121.893 163.516ZM121.309 162.8C121.257 162.797 121.205 162.807 121.157 162.828C121.141 162.837 121.128 162.85 121.118 162.865C121.109 162.881 121.103 162.898 121.101 162.916C121.093 162.963 121.096 163.012 121.112 163.057C121.127 163.103 121.154 163.143 121.189 163.176C121.389 163.36 121.945 163.392 122.705 163.268C122.27 163.032 121.798 162.874 121.309 162.8Z" fill="#88FF99"/>
<path d="M122.952 163.396H122.916C122.516 163.212 121.716 162.476 121.816 162.092C121.816 162 121.908 161.888 122.128 161.868C122.207 161.858 122.287 161.865 122.363 161.888C122.439 161.912 122.509 161.951 122.568 162.004C122.968 162.36 123.032 163.276 123.036 163.316C123.036 163.33 123.032 163.344 123.025 163.357C123.018 163.37 123.008 163.38 122.996 163.388C122.983 163.396 122.967 163.399 122.952 163.396ZM122.184 162H122.136C121.992 162 121.98 162.072 121.976 162.088C121.928 162.32 122.452 162.888 122.86 163.148C122.84 162.765 122.7 162.399 122.46 162.1C122.384 162.033 122.286 161.997 122.184 162Z" fill="#88FF99"/>
<path d="M153.06 87.7954L132.613 90.4618C131.718 90.5787 131.086 91.3997 131.203 92.2957L132.944 105.647C133.061 106.543 133.882 107.174 134.778 107.057L155.225 104.391C156.121 104.274 156.752 103.453 156.635 102.557L154.894 89.2061C154.777 88.3101 153.956 87.6785 153.06 87.7954Z" fill="#263238"/>
<path opacity="0.3" d="M153.06 87.7954L132.613 90.4618C131.718 90.5787 131.086 91.3997 131.203 92.2957L132.944 105.647C133.061 106.543 133.882 107.174 134.778 107.057L155.225 104.391C156.121 104.274 156.752 103.453 156.635 102.557L154.894 89.2061C154.777 88.3101 153.956 87.6785 153.06 87.7954Z" fill="black"/>
<path d="M141.876 92.208C141.534 92.2078 141.202 92.0938 140.932 91.884C140.605 91.6319 140.391 91.261 140.336 90.852L139.976 88.076C139.95 87.8738 139.963 87.6683 140.016 87.4713C140.069 87.2744 140.161 87.0899 140.285 86.9283C140.41 86.7667 140.565 86.6312 140.742 86.5295C140.918 86.4279 141.114 86.3622 141.316 86.336L145.936 85.732C146.345 85.6787 146.758 85.7898 147.085 86.0411C147.412 86.2923 147.626 86.6631 147.68 87.072L148.044 89.848C148.095 90.2566 147.983 90.6688 147.732 90.9953C147.481 91.3218 147.112 91.5362 146.704 91.592L142.08 92.192C142.012 92.2013 141.944 92.2067 141.876 92.208ZM146.14 86.608H146.056L141.432 87.212C141.347 87.2229 141.266 87.2503 141.192 87.2928C141.118 87.3353 141.053 87.392 141.001 87.4597C140.949 87.5273 140.91 87.6046 140.888 87.687C140.866 87.7694 140.861 87.8554 140.872 87.94L141.232 90.716C141.256 90.8876 141.346 91.0429 141.484 91.148C141.551 91.2001 141.629 91.2382 141.711 91.2602C141.793 91.2821 141.879 91.2875 141.964 91.276L146.584 90.676C146.755 90.6521 146.91 90.562 147.015 90.4252C147.121 90.2883 147.168 90.1156 147.148 89.944L146.8 87.2C146.789 87.1152 146.762 87.0334 146.719 86.9592C146.677 86.8851 146.62 86.8201 146.552 86.768C146.435 86.6732 146.29 86.621 146.14 86.62V86.608Z" fill="#263238"/>
<path d="M155.008 87.5421L134.561 90.2085C133.665 90.3254 133.033 91.1464 133.15 92.0424L134.891 105.393C135.008 106.289 135.829 106.921 136.725 106.804L157.172 104.138C158.068 104.021 158.699 103.2 158.583 102.304L156.841 88.9528C156.725 88.0568 155.904 87.4252 155.008 87.5421Z" fill="#263238"/>
<path d="M143.008 83.948L141.704 86.488L145.528 86.664C145.804 86.1093 145.904 85.4837 145.816 84.8706C145.727 84.2574 145.454 83.6859 145.032 83.232L143.008 83.948Z" fill="#7F3E3B"/>
<path d="M143.164 88.456L145.444 88.144L145.528 86.664L141.704 86.488L141.764 87.316C141.776 87.4849 141.822 87.6496 141.9 87.7999C141.978 87.9502 142.085 88.0829 142.217 88.1898C142.348 88.2967 142.5 88.3755 142.663 88.4213C142.826 88.4671 142.996 88.4789 143.164 88.456Z" fill="#7F3E3B"/>
<path d="M140.328 69.076C140.268 69.388 140.692 70.544 141.004 70.992C141.316 71.44 146.476 71.836 147.14 70.82C147.804 69.804 147.832 67.996 147.516 67.392C147.2 66.788 140.452 68.4 140.328 69.076Z" fill="#88FF99"/>
<path d="M64.9521 56.592C64.3081 57.436 63.6081 58.36 62.9521 59.268C62.2961 60.176 61.6641 61.1 61.0601 62.036C59.8487 63.8321 58.8031 65.7346 57.9361 67.72C57.8361 67.956 57.7441 68.192 57.6641 68.428C57.6214 68.5453 57.5814 68.6613 57.5441 68.776L57.4881 68.952L57.4641 69.036V69.06C57.3908 69.3664 57.3759 69.684 57.4201 69.996C57.5581 71.0022 57.7952 71.9924 58.1281 72.952C58.8121 75.02 59.7281 77.152 60.6281 79.22L58.5841 80.516C57.0506 78.6238 55.7231 76.5735 54.6241 74.4C54.0186 73.2267 53.5579 71.9843 53.2521 70.7C53.0534 69.8692 53.0208 69.0074 53.1561 68.164L53.1881 67.972L53.2201 67.844L53.2801 67.596C53.3161 67.432 53.3561 67.268 53.4041 67.108C53.4921 66.784 53.5881 66.472 53.6921 66.16C54.5287 63.8065 55.6205 61.5517 56.9481 59.436C57.5881 58.4 58.2441 57.384 58.9481 56.404C59.6521 55.424 60.3481 54.472 61.1601 53.496L64.9521 56.592Z" fill="#263238"/>
<path d="M60.0874 78.48L62.1914 79.596L59.7914 82.432C59.7914 82.432 58.2794 81.408 58.1914 79.848L60.0874 78.48Z" fill="#FFC3BD"/>
<path d="M65.0235 81.3439L62.4315 83.4039L59.7715 82.4319L62.1915 79.5959L65.0235 81.3439Z" fill="#FFC3BD"/>
<path d="M96.4716 72.4L98.9596 73.684L98.7396 74.58L96.7396 76.58C96.7396 76.58 95.2996 75.46 95.3316 73.9L96.4716 72.4Z" fill="#FFC3BD"/>
<path d="M96.832 72.752L99.112 72.324L100.576 72.948L99.6 73.112L98.96 73.692L96.832 72.752Z" fill="#FFC3BD"/>
<path d="M101.452 76.876L98.9795 77.408C98.7204 77.4629 98.4504 77.4306 98.2115 77.316L96.7275 76.596L98.7275 74.596L100.052 74.196L101.708 76.096C101.759 76.1594 101.794 76.2347 101.809 76.3151C101.823 76.3954 101.818 76.4782 101.792 76.5559C101.767 76.6335 101.722 76.7035 101.663 76.7594C101.603 76.8153 101.531 76.8554 101.452 76.876Z" fill="#FFC3BD"/>
<path d="M74.0681 40.376C74.1241 40.644 74.3081 40.832 74.4681 40.776C74.6281 40.72 74.7401 40.492 74.6881 40.224C74.6361 39.956 74.4441 39.768 74.2881 39.824C74.1321 39.88 74.0001 40.108 74.0681 40.376Z" fill="#263238"/>
<path d="M74.2842 40.836C74.7709 41.5915 75.3591 42.2766 76.0322 42.872C75.6322 43.412 74.8002 43.372 74.8002 43.372L74.2842 40.836Z" fill="#FF5652"/>
<path d="M72.7996 39.084C72.7596 39.0823 72.7214 39.0668 72.6916 39.04C72.662 39.0094 72.6455 38.9685 72.6455 38.926C72.6455 38.8834 72.662 38.8426 72.6916 38.812C72.8606 38.6206 73.073 38.4724 73.311 38.3798C73.549 38.2873 73.8057 38.2531 74.0596 38.28C74.0969 38.2921 74.1286 38.3171 74.149 38.3505C74.1694 38.384 74.1772 38.4236 74.1709 38.4623C74.1646 38.501 74.1447 38.5361 74.1147 38.5614C74.0848 38.5866 74.0468 38.6003 74.0076 38.6C73.8062 38.5812 73.6033 38.6106 73.4155 38.6858C73.2277 38.7609 73.0605 38.8795 72.9276 39.032C72.9117 39.0499 72.8919 39.0639 72.8697 39.0729C72.8475 39.0819 72.8235 39.0857 72.7996 39.084Z" fill="#263238"/>
<path d="M66.7996 45.116C67.2636 47.476 67.5396 50.744 65.8916 52.316C65.8916 52.316 66.5356 54.716 70.9196 54.716C75.7436 54.716 73.2396 52.612 73.2396 52.612C71.2396 51.992 71.2396 49.708 71.7116 47.876L66.7996 45.116Z" fill="#FFC3BD"/>
<path d="M65.1993 53.932C64.7993 53.3 64.9313 51.384 65.4113 51.072C66.1793 50.568 69.3473 50.624 73.5513 51.852C72.9833 53.684 73.9073 54.716 73.9073 54.716L65.1993 53.932Z" fill="#88FF99"/>
<path opacity="0.2" d="M61.6795 57.328C60.1795 58.808 59.7435 61.84 59.9075 63.908C60.2755 63.28 60.6675 62.652 61.0715 62.04C61.6755 61.1 62.3195 60.184 62.9675 59.264C63.1475 59.012 63.3315 58.756 63.5195 58.5C63.5555 58.336 63.5875 58.172 63.6195 58.012L61.6795 57.328Z" fill="black"/>
<path d="M51.0561 162.8C51.3181 162.891 51.6056 162.876 51.8561 162.756C51.9044 162.712 51.9377 162.654 51.9514 162.59C51.965 162.526 51.9583 162.46 51.9321 162.4C51.9173 162.351 51.8921 162.305 51.8583 162.267C51.8245 162.228 51.7828 162.197 51.7361 162.176C51.3001 161.968 50.2961 162.376 50.2561 162.392C50.2423 162.397 50.2305 162.407 50.2219 162.419C50.2134 162.431 50.2086 162.445 50.2081 162.46C50.2075 162.475 50.2113 162.49 50.2192 162.503C50.227 162.516 50.2384 162.526 50.2521 162.532C50.5098 162.65 50.7793 162.739 51.0561 162.8ZM51.5841 162.284L51.6721 162.312C51.6999 162.324 51.7247 162.342 51.7447 162.365C51.7647 162.388 51.7795 162.415 51.7881 162.444C51.8281 162.58 51.7881 162.624 51.7601 162.64C51.5881 162.788 50.9601 162.64 50.4921 162.468C50.8416 162.319 51.2206 162.252 51.6001 162.272L51.5841 162.284Z" fill="#26AE61"/>
<path d="M50.2721 162.528H50.3081C50.6761 162.424 51.4561 161.868 51.4641 161.504C51.4654 161.446 51.4465 161.39 51.4108 161.345C51.375 161.299 51.3245 161.268 51.2681 161.256C51.2129 161.235 51.1538 161.227 51.095 161.232C51.0362 161.237 50.9792 161.255 50.9281 161.284C50.5001 161.504 50.2281 162.396 50.2161 162.432C50.2101 162.444 50.207 162.457 50.207 162.47C50.207 162.483 50.2101 162.496 50.2161 162.508C50.2317 162.521 50.2516 162.528 50.2721 162.528ZM51.1841 161.384H51.2201C51.3121 161.416 51.3121 161.464 51.3121 161.484C51.3121 161.7 50.7921 162.132 50.4121 162.308C50.5141 161.955 50.7188 161.64 51.0001 161.404C51.0304 161.387 51.0637 161.377 51.0981 161.374C51.1324 161.37 51.1672 161.374 51.2001 161.384H51.1841Z" fill="#26AE61"/>
<path d="M74.876 163.328C75.276 163.328 75.676 163.272 75.824 163.084C75.8583 163.035 75.8767 162.977 75.8767 162.918C75.8767 162.859 75.8583 162.801 75.824 162.752C75.7694 162.662 75.6818 162.598 75.58 162.572C75.044 162.428 73.916 163.068 73.868 163.096C73.854 163.103 73.8429 163.115 73.8364 163.13C73.8299 163.144 73.8284 163.161 73.832 163.176C73.8342 163.192 73.8411 163.206 73.8518 163.218C73.8626 163.229 73.8766 163.237 73.892 163.24C74.2169 163.297 74.5461 163.327 74.876 163.328ZM75.388 162.704C75.4371 162.698 75.4869 162.698 75.536 162.704C75.5669 162.711 75.596 162.724 75.6216 162.742C75.6471 162.761 75.6683 162.785 75.684 162.812C75.74 162.908 75.72 162.952 75.684 162.98C75.536 163.188 74.72 163.192 74.12 163.108C74.5128 162.893 74.9433 162.756 75.388 162.704Z" fill="#26AE61"/>
<path d="M73.8993 163.24H73.9313C74.3313 163.068 75.0913 162.368 75.0353 162.004C75.0353 161.916 74.9593 161.812 74.7513 161.788C74.6754 161.781 74.5989 161.789 74.5261 161.812C74.4534 161.834 74.3858 161.871 74.3273 161.92C73.9273 162.26 73.8273 163.12 73.8233 163.164C73.823 163.177 73.8257 163.19 73.8312 163.202C73.8368 163.214 73.845 163.224 73.8553 163.232C73.8688 163.239 73.8841 163.242 73.8993 163.24ZM74.6993 161.932H74.7473C74.8833 161.932 74.8913 162 74.8953 162.016C74.9313 162.236 74.4073 162.784 74.0113 163.02C74.0468 162.653 74.1949 162.307 74.4353 162.028C74.5056 161.968 74.5947 161.934 74.6873 161.932H74.6993Z" fill="#26AE61"/>
<path d="M70.3555 163.164H73.5795L73.8995 155.692H70.6755L70.3555 163.164Z" fill="#FFC3BD"/>
<path d="M46.7314 161.784L49.8434 162.444L52.6674 155.296L49.5554 154.636L46.7314 161.784Z" fill="#FFC3BD"/>
<path d="M50.1318 162.036L46.5878 161.268C46.5258 161.255 46.4612 161.263 46.4045 161.291C46.3478 161.32 46.3024 161.367 46.2758 161.424L45.0438 164.092C45.014 164.157 44.9995 164.228 45.0011 164.3C45.0028 164.372 45.0206 164.442 45.0533 164.506C45.086 164.57 45.1327 164.626 45.1899 164.669C45.2471 164.712 45.3134 164.742 45.3838 164.756C46.6278 165 47.2438 165.06 48.7998 165.396C49.7598 165.604 51.9238 166.132 53.2478 166.416C54.5718 166.7 55.0238 165.432 54.5078 165.196C52.1958 164.14 51.2278 163.196 50.5998 162.34C50.4868 162.184 50.3201 162.076 50.1318 162.036Z" fill="#263238"/>
<path d="M73.5599 162.8H70.0359C69.972 162.801 69.9102 162.823 69.8603 162.863C69.8103 162.903 69.775 162.958 69.7599 163.02L69.1239 165.888C69.1082 165.957 69.1084 166.029 69.1245 166.099C69.1406 166.168 69.1721 166.233 69.2167 166.288C69.2614 166.343 69.3179 166.388 69.3822 166.419C69.4465 166.449 69.5168 166.465 69.5879 166.464C70.8599 166.44 72.6959 166.368 74.2919 166.368C76.1599 166.368 76.8239 166.468 79.0119 166.468C80.3359 166.468 80.7039 165.132 80.1519 165.008C77.6279 164.456 76.5159 164.396 74.3359 163.052C74.1051 162.899 73.8367 162.811 73.5599 162.8Z" fill="#263238"/>
<path opacity="0.2" d="M73.8998 155.696L73.7358 159.544H70.5078L70.6718 155.696H73.8998Z" fill="black"/>
<path opacity="0.2" d="M49.5556 154.636L52.6676 155.296L51.2116 158.98L48.0996 158.324L49.5556 154.636Z" fill="black"/>
<path d="M72.6642 81.1C72.6642 81.1 69.0002 105.756 66.9922 114.992C64.7922 125.108 52.9922 158.592 52.9922 158.592L47.2002 157.32C47.2002 157.32 55.4562 130.048 57.3002 115.908C58.7202 105.048 61.5162 81.108 61.5162 81.108L72.6642 81.1Z" fill="#263238"/>
<path opacity="0.1" d="M72.6642 81.1C72.6642 81.1 69.0002 105.756 66.9922 114.992C64.7922 125.108 52.9922 158.592 52.9922 158.592L47.2002 157.32C47.2002 157.32 55.4562 130.048 57.3002 115.908C58.7202 105.048 61.5162 81.108 61.5162 81.108L72.6642 81.1Z" fill="white"/>
<path d="M54.3718 156.644C54.3958 156.644 53.2958 158.732 53.2958 158.732L46.7998 157.324L47.3478 155.372L54.3718 156.644Z" fill="#263238"/>
<path opacity="0.3" d="M70.3478 89.884C66.1158 90.716 66.5638 106.504 67.0718 114.624C68.2718 108.884 70.0798 97.824 71.3038 90C71.007 89.8555 70.6704 89.8147 70.3478 89.884Z" fill="black"/>
<path d="M78.7997 81.1C78.7997 81.1 79.2437 105.22 78.8917 115.06C78.5277 125.292 74.9557 158.8 74.9557 158.8H69.4717C69.4717 158.8 69.2717 125.892 69.0277 115.84C68.7637 104.884 67.4277 81.1 67.4277 81.1H78.7997Z" fill="#263238"/>
<path opacity="0.1" d="M78.7997 81.1C78.7997 81.1 79.2437 105.22 78.8917 115.06C78.5277 125.292 74.9557 158.8 74.9557 158.8H69.4717C69.4717 158.8 69.2717 125.892 69.0277 115.84C68.7637 104.884 67.4277 81.1 67.4277 81.1H78.7997Z" fill="white"/>
<path d="M75.9996 156.624C76.0236 156.624 75.6876 158.892 75.6876 158.892H69.0316L68.8516 156.868L75.9996 156.624Z" fill="#263238"/>
<path d="M79.2239 56.284C79.8839 59.772 81.1079 69.516 79.1959 83.692L60.5239 83.404C60.4159 80.928 62.3839 67.488 60.5639 55.556C60.5131 55.2175 60.5303 54.8724 60.6145 54.5406C60.6986 54.2089 60.848 53.8973 61.054 53.624C61.2599 53.3506 61.5182 53.1211 61.8139 52.9487C62.1095 52.7763 62.4365 52.6646 62.7759 52.62C63.7199 52.492 64.8159 52.372 65.8959 52.32C68.3378 52.1799 70.7859 52.1799 73.2279 52.32C74.0279 52.396 74.8279 52.512 75.5399 52.636C76.4513 52.799 77.2916 53.2352 77.9495 53.8867C78.6074 54.5382 79.0519 55.3742 79.2239 56.284Z" fill="#263238"/>
<path opacity="0.2" d="M79.7355 59.748L76.5915 60.528C76.3515 63.464 78.2875 66.788 80.2235 69.328C80.2431 66.128 80.0802 62.9294 79.7355 59.748Z" fill="black"/>
<path d="M78.4436 54.716C78.9756 55.672 79.5516 56.716 80.1436 57.688C80.7356 58.66 81.3436 59.656 81.9556 60.616C83.135 62.5025 84.4731 64.285 85.9556 65.944C86.1396 66.132 86.3196 66.324 86.5036 66.5L86.6396 66.632L86.7476 66.728C86.8076 66.792 86.9116 66.864 86.9876 66.932C87.3556 67.22 87.7876 67.524 88.2636 67.816C89.2036 68.396 90.2116 68.964 91.2356 69.512C93.2836 70.612 95.4036 71.692 97.4956 72.784L96.6676 75.06C94.3003 74.4932 91.9694 73.7839 89.6876 72.936C88.5436 72.508 87.3956 72.044 86.2476 71.48C85.637 71.1892 85.0452 70.8606 84.4756 70.496C84.3196 70.384 84.1716 70.296 84.0036 70.164L83.7636 69.98L83.5676 69.816C83.2996 69.6 83.0556 69.376 82.8076 69.152C81.8626 68.2707 80.9805 67.3244 80.1676 66.32C79.3676 65.348 78.6196 64.32 77.9116 63.324C77.2036 62.328 76.5316 61.272 75.9116 60.212C75.2916 59.152 74.6756 58.112 74.0996 56.96L78.4436 54.716Z" fill="#263238"/>
<path d="M64.9958 41.624C65.8678 44.88 66.1958 46.824 68.2238 48.184C71.2478 50.224 75.0238 47.884 75.1278 44.432C75.2318 41.328 73.7878 36.524 70.2958 35.868C69.5259 35.7186 68.7306 35.7687 67.9855 36.0135C67.2405 36.2583 66.5704 36.6897 66.0392 37.2666C65.508 37.8436 65.1332 38.5469 64.9506 39.3096C64.7679 40.0723 64.7835 40.869 64.9958 41.624Z" fill="#FFC3BD"/>
<path d="M71.7593 41.664C72.5353 40.524 72.8313 38.772 72.2873 37.928C72.7953 38.14 76.4593 38.392 75.0233 35.784C73.5873 33.176 70.7073 32.456 68.1993 33.176L69.4193 33.528C69.4193 33.528 65.9913 33.28 64.3233 34.668C64.8313 34.696 65.2713 34.668 65.2713 34.668C65.2713 34.668 61.5993 36.4 63.1993 37.716C60.6193 39.68 62.3673 42.4 66.6153 46.456C67.3553 47.124 69.4513 46.88 69.9153 46.48C69.6193 44.712 71.3233 42.312 71.7593 41.664Z" fill="#263238"/>
<path d="M72.1919 39.444C72.9519 40 73.8919 41.636 74.3279 42.452C74.7639 43.268 75.2239 43.164 75.4439 43.488C75.6639 43.812 76.5639 49.292 75.5999 50.168C74.6359 51.044 71.7359 49.66 71.3559 48.652C70.9759 47.644 71.6719 45.172 71.8599 44.608C72.0576 43.6338 71.9997 42.6251 71.6919 41.68C71.3559 40.724 72.1919 39.444 72.1919 39.444Z" fill="#263238"/>
<path d="M70.4801 41.816C70.5837 42.2149 70.7663 42.5889 71.0171 42.916C71.2679 43.243 71.5817 43.5164 71.9401 43.72C72.8241 44.12 72.9321 43.092 72.7601 42.12C72.6041 41.236 72.3601 40.52 71.6441 40.176C70.8001 39.74 70.1881 40.848 70.4801 41.816Z" fill="#FFC3BD"/>
</svg>
