<svg width="200" height="200" viewBox="0 0 200 200" fill="none" xmlns="http://www.w3.org/2000/svg">
<path d="M200 152.96H0V153.06H200V152.96Z" fill="#EBEBEB"/>
<path d="M139.333 157.424H135.141V157.524H139.333V157.424Z" fill="#EBEBEB"/>
<path d="M42.0727 155.424H25.9727V155.524H42.0727V155.424Z" fill="#EBEBEB"/>
<path d="M73.7323 155.72H50.0723V155.82H73.7323V155.72Z" fill="#EBEBEB"/>
<path d="M107.599 155.72H100.787V155.82H107.599V155.72Z" fill="#EBEBEB"/>
<path d="M178.416 156.352H156.576V156.452H178.416V156.352Z" fill="#EBEBEB"/>
<path d="M91.5123 158H82.4883V158.1H91.5123V158Z" fill="#EBEBEB"/>
<path d="M186.476 156.404H180.752V156.504H186.476V156.404Z" fill="#EBEBEB"/>
<path d="M94.7992 135.12H17.5632C16.9581 135.119 16.3782 134.878 15.9508 134.45C15.5233 134.021 15.2832 133.441 15.2832 132.836V24.264C15.2885 23.6624 15.5309 23.0872 15.9578 22.6633C16.3847 22.2394 16.9616 22.001 17.5632 22H94.7992C95.405 22 95.9859 22.2406 96.4142 22.669C96.8426 23.0973 97.0832 23.6782 97.0832 24.284V132.836C97.0832 133.442 96.8426 134.023 96.4142 134.451C95.9859 134.879 95.405 135.12 94.7992 135.12ZM17.5632 22.08C16.9847 22.0811 16.4302 22.3116 16.0215 22.7211C15.6128 23.1306 15.3832 23.6855 15.3832 24.264V132.836C15.3832 133.415 15.6128 133.969 16.0215 134.379C16.4302 134.788 16.9847 135.019 17.5632 135.02H94.7992C95.3781 135.019 95.933 134.789 96.3424 134.379C96.7517 133.97 96.9821 133.415 96.9832 132.836V24.264C96.9821 23.6851 96.7517 23.1302 96.3424 22.7208C95.933 22.3115 95.3781 22.0811 94.7992 22.08H17.5632Z" fill="#EBEBEB"/>
<path d="M181.325 135.12H104.085C103.479 135.119 102.899 134.878 102.471 134.45C102.043 134.022 101.802 133.441 101.801 132.836V24.264C101.807 23.662 102.05 23.0868 102.478 22.663C102.905 22.2392 103.483 22.001 104.085 22H181.325C181.926 22.0021 182.502 22.2409 182.928 22.6647C183.354 23.0885 183.596 23.6631 183.601 24.264V132.836C183.601 133.44 183.361 134.02 182.935 134.448C182.508 134.876 181.929 135.118 181.325 135.12ZM104.085 22.08C103.506 22.0811 102.951 22.3115 102.542 22.7208C102.132 23.1302 101.902 23.6851 101.901 24.264V132.836C101.902 133.415 102.132 133.97 102.542 134.379C102.951 134.789 103.506 135.019 104.085 135.02H181.325C181.904 135.019 182.459 134.789 182.868 134.379C183.277 133.97 183.508 133.415 183.509 132.836V24.264C183.508 23.6851 183.277 23.1302 182.868 22.7208C182.459 22.3115 181.904 22.0811 181.325 22.08H104.085Z" fill="#EBEBEB"/>
<path d="M29.1286 92.972H83.6406L83.6406 29.452L29.1286 29.452L29.1286 92.972Z" fill="#F5F5F5"/>
<path d="M27.6434 92.972H82.9434L82.9434 29.452L27.6434 29.452L27.6434 92.972Z" fill="#F5F5F5"/>
<path d="M29.1286 96.528H83.6406V92.968H29.1286V96.528Z" fill="#E6E6E6"/>
<path d="M20.8677 96.528H72.9277V92.968H20.8677V96.528Z" fill="#F5F5F5"/>
<path d="M80.8711 90.276V32.144H29.7191L29.7191 90.276H80.8711Z" fill="#FAFAFA"/>
<path d="M73.5129 90.276L61.3369 32.148H45.3809L57.5529 90.276H73.5129Z" fill="white"/>
<path d="M54.9679 90.276L42.7959 32.148H35.5879L47.7639 90.276H54.9679Z" fill="white"/>
<path d="M29.9805 84.196L29.9805 31.784H29.7165L29.7165 84.196H29.9805Z" fill="white"/>
<path d="M85.2004 29.36V51.976H79.2004C79.2004 51.976 68.4484 44.964 66.0004 30.536C65.9423 30.1924 65.9597 29.8403 66.0515 29.5041C66.1432 29.1679 66.3071 28.8557 66.5317 28.5893C66.7563 28.3228 67.0362 28.1085 67.352 27.9611C67.6678 27.8138 68.0119 27.7369 68.3604 27.736H83.5604C83.7748 27.7344 83.9875 27.7752 84.1861 27.8561C84.3848 27.9369 84.5655 28.0563 84.7179 28.2072C84.8703 28.3581 84.9914 28.5376 85.0742 28.7354C85.157 28.9333 85.1998 29.1455 85.2004 29.36Z" fill="#E6E6E6"/>
<path d="M85.1998 88.228V53.8H79.1998C79.1998 53.8 75.7598 60.752 72.3278 68.744C71.4217 70.8723 71.0571 73.1919 71.2665 75.4955C71.4759 77.7992 72.2529 80.015 73.5279 81.945C74.803 83.875 76.5363 85.459 78.5731 86.5554C80.6099 87.6518 82.8866 88.2265 85.1998 88.228Z" fill="#E6E6E6"/>
<path d="M79.3843 53.8H84.9723C85.3036 53.8 85.5723 53.5314 85.5723 53.2V52.576C85.5723 52.2446 85.3036 51.976 84.9723 51.976H79.3843C79.0529 51.976 78.7843 52.2446 78.7843 52.576V53.2C78.7843 53.5314 79.0529 53.8 79.3843 53.8Z" fill="#F5F5F5"/>
<path d="M25.9473 29.36V51.976H31.9473C31.9473 51.976 42.6993 44.964 45.1473 30.536C45.2053 30.1924 45.1879 29.8403 45.0961 29.5041C45.0044 29.1679 44.8405 28.8557 44.6159 28.5893C44.3914 28.3228 44.1114 28.1085 43.7956 27.9611C43.4798 27.8138 43.1357 27.7369 42.7873 27.736H27.5873C27.3728 27.7344 27.1601 27.7752 26.9615 27.8561C26.7629 27.9369 26.5821 28.0563 26.4297 28.2072C26.2774 28.3581 26.1563 28.5376 26.0735 28.7354C25.9907 28.9333 25.9478 29.1455 25.9473 29.36Z" fill="#E6E6E6"/>
<path d="M25.9473 88.228V53.8H31.9473C31.9473 53.8 35.3873 60.752 38.8193 68.744C39.7248 70.871 40.0896 73.1892 39.8809 75.4916C39.6723 77.7939 38.8967 80.0088 37.6235 81.9384C36.3503 83.868 34.6191 85.4522 32.5845 86.5497C30.5498 87.6472 28.275 88.2238 25.9633 88.228H25.9473Z" fill="#E6E6E6"/>
<path d="M31.7603 51.976H26.1723C25.8409 51.976 25.5723 52.2446 25.5723 52.576V53.2C25.5723 53.5314 25.8409 53.8 26.1723 53.8H31.7603C32.0916 53.8 32.3603 53.5314 32.3603 53.2V52.576C32.3603 52.2446 32.0916 51.976 31.7603 51.976Z" fill="#F5F5F5"/>
<path d="M147.744 80.544H171.756V37.252H147.744V80.544Z" fill="#E0E0E0"/>
<path d="M145.057 80.544H171.145V37.252H145.057V80.544Z" fill="#F5F5F5"/>
<path d="M168.451 77.852V39.94H147.743V77.852H168.451Z" fill="white"/>
<path d="M161.217 53.192V47.588H154.981V53.192H161.217Z" fill="#F5F5F5"/>
<path d="M161.217 61.696V56.092H154.981V61.696H161.217Z" fill="#F5F5F5"/>
<path d="M161.217 70.2V64.596H154.981V70.2H161.217Z" fill="#F5F5F5"/>
<path d="M122.064 70.4C125.507 70.3399 128.79 68.9297 131.204 66.4732C133.618 64.0166 134.97 60.7102 134.97 57.266C134.97 53.8218 133.618 50.5154 131.204 48.0589C128.79 45.6023 125.507 44.1921 122.064 44.132H121.264V70.4H122.064Z" fill="#E6E6E6"/>
<path d="M124.32 70.0388C131.373 68.3481 135.72 61.2602 134.029 54.2074C132.339 47.1546 125.251 42.8077 118.198 44.4983C111.145 46.1889 106.798 53.2769 108.489 60.3297C110.18 67.3825 117.267 71.7294 124.32 70.0388Z" fill="#F5F5F5"/>
<path d="M122.855 67.0523C128.253 66.1693 131.913 61.0775 131.03 55.6794C130.147 50.2813 125.055 46.6211 119.657 47.5041C114.259 48.3871 110.599 53.4789 111.482 58.877C112.365 64.2751 117.456 67.9353 122.855 67.0523Z" fill="white"/>
<path d="M117.161 60.964L116.389 59.856L120.509 56.984L119.149 50.368L120.469 50.096L122.009 57.58L117.161 60.964Z" fill="#E6E6E6"/>
<path d="M57.4005 154.38H74.5645V108.004H57.4005L57.4005 154.38Z" fill="#E6E6E6"/>
<path d="M61.9844 154.376H57.4004V146.696H66.7884L61.9844 154.376Z" fill="#F0F0F0"/>
<path d="M160.301 154.38H177.465V108.004H160.301V154.38Z" fill="#F0F0F0"/>
<path d="M57.4007 151.736H164.305V108.004L57.4007 108.004V151.736Z" fill="#FAFAFA"/>
<path d="M159.72 154.376H164.304V146.696H154.912L159.72 154.376Z" fill="#F0F0F0"/>
<path d="M60.956 127.86L160.748 127.86V111.764L60.956 111.764V127.86Z" fill="#F0F0F0"/>
<path d="M60.956 147.844H160.748V131.748H60.956V147.844Z" fill="#F0F0F0"/>
<path d="M134.359 103.472C136.339 103.472 137.943 101.867 137.943 99.888C137.943 97.9086 136.339 96.304 134.359 96.304C132.38 96.304 130.775 97.9086 130.775 99.888C130.775 101.867 132.38 103.472 134.359 103.472Z" fill="#F5F5F5"/>
<path d="M136.889 101.6C136.889 102.154 137.053 102.695 137.361 103.156C137.668 103.616 138.106 103.975 138.617 104.187C139.129 104.399 139.692 104.454 140.235 104.346C140.778 104.238 141.277 103.971 141.669 103.58C142.06 103.188 142.327 102.689 142.435 102.146C142.543 101.603 142.487 101.04 142.276 100.528C142.064 100.017 141.705 99.5795 141.244 99.2719C140.784 98.9642 140.242 98.8 139.689 98.8C138.946 98.8 138.234 99.095 137.709 99.6201C137.184 100.145 136.889 100.857 136.889 101.6Z" fill="#F5F5F5"/>
<path d="M128.229 105.18C130.208 105.18 131.813 103.575 131.813 101.596C131.813 99.6166 130.208 98.012 128.229 98.012C126.249 98.012 124.645 99.6166 124.645 101.596C124.645 103.575 126.249 105.18 128.229 105.18Z" fill="#F5F5F5"/>
<path d="M122.352 104.128C124.331 104.128 125.936 102.523 125.936 100.544C125.936 98.5646 124.331 96.96 122.352 96.96C120.372 96.96 118.768 98.5646 118.768 100.544C118.768 102.523 120.372 104.128 122.352 104.128Z" fill="#F5F5F5"/>
<path d="M149.556 101.012C149.556 101.012 149.064 108 130.204 108C111.344 108 110.852 101.012 110.852 101.012H149.556Z" fill="#E6E6E6"/>
<path d="M99.9994 171.024C142.832 171.024 177.555 168.997 177.555 166.496C177.555 163.995 142.832 161.968 99.9994 161.968C57.1664 161.968 22.4434 163.995 22.4434 166.496C22.4434 168.997 57.1664 171.024 99.9994 171.024Z" fill="#F5F5F5"/>
<path d="M82.5191 64.256C82.5711 64.432 82.6631 64.7 82.7431 64.924L82.9991 65.64C83.1751 66.116 83.3671 66.588 83.5711 67.056C83.97 67.9823 84.4186 68.8863 84.9151 69.764C85.8991 71.484 87.0951 73.04 88.5151 74.036L88.7631 74.208C88.7631 74.208 88.7631 74.236 88.8231 74.244C89.0939 74.2371 89.3588 74.1643 89.5951 74.032C90.4149 73.5978 91.169 73.0497 91.8351 72.404C92.6048 71.6995 93.3378 70.9558 94.0311 70.176C94.7431 69.376 95.4431 68.548 96.1031 67.736L98.0111 68.888C97.02 70.9897 95.7747 72.9618 94.3031 74.76C93.4947 75.7598 92.5368 76.6287 91.4631 77.336C90.7576 77.7904 89.9595 78.0815 89.1271 78.188C88.5974 78.2419 88.0623 78.193 87.5511 78.044C87.2876 77.9668 87.0329 77.8622 86.7911 77.732L86.3311 77.476C85.2131 76.8019 84.2008 75.9662 83.3271 74.996C82.4919 74.0835 81.7471 73.0922 81.1031 72.036C80.4714 71.0106 79.9139 69.9412 79.4351 68.836C79.1991 68.292 78.9751 67.74 78.7711 67.184C78.6671 66.904 78.5671 66.624 78.4751 66.336C78.3831 66.048 78.2991 65.784 78.2031 65.428L82.5191 64.256Z" fill="#B97964"/>
<path d="M86.6524 71.324L81.5364 74.156C81.5364 74.156 81.3844 73.936 81.1364 73.556C80.9564 73.276 80.7364 72.908 80.4564 72.476C78.9524 70.032 76.4564 65.568 77.1084 63.676C78.1044 60.764 81.7764 60.812 83.5804 64.188C84.4527 65.8701 85.2338 67.5979 85.9204 69.364C86.1084 69.836 86.2644 70.248 86.3844 70.564C86.5564 71.048 86.6524 71.324 86.6524 71.324Z" fill="#26AE61"/>
<path opacity="0.2" d="M86.6524 71.324L81.5364 74.156C81.5364 74.156 81.3844 73.936 81.1364 73.556C80.9564 73.276 80.7364 72.908 80.4564 72.476C78.9524 70.032 76.4564 65.568 77.1084 63.676C78.1044 60.764 81.7764 60.812 83.5804 64.188C84.4527 65.8701 85.2338 67.5979 85.9204 69.364C86.1084 69.836 86.2644 70.248 86.3844 70.564C86.5564 71.048 86.6524 71.324 86.6524 71.324Z" fill="black"/>
<path opacity="0.2" d="M86.4007 70.584L81.1527 73.556C80.9727 73.276 80.7527 72.908 80.4727 72.476L85.9367 69.38C86.1087 69.852 86.2647 70.264 86.4007 70.584Z" fill="black"/>
<path opacity="0.2" d="M77.0312 64.0281C78.1752 63.4761 79.4952 63.9361 80.8792 66.1281C82.2632 68.3201 83.4512 72.0001 83.5992 73.0281L81.5552 74.1561C81.5552 74.1561 76.6112 66.9441 77.0312 64.0281Z" fill="black"/>
<path d="M81.7758 87.444H65.9158C65.8038 86.028 66.1318 81.42 65.8878 75.552C65.737 71.2026 65.2097 66.8744 64.3118 62.616C64.2398 62.296 64.1678 61.98 64.0918 61.66C64.0918 61.66 64.8918 61.496 66.0478 61.328C67.0038 61.188 68.2038 61.044 69.3798 60.988C71.6246 60.8599 73.875 60.8599 76.1198 60.988C77.1558 61.084 78.1678 61.256 78.9758 61.412C80.0078 61.62 80.7118 61.812 80.7118 61.812C80.7118 61.812 84.5238 70.768 81.7758 87.444Z" fill="#26AE61"/>
<path opacity="0.2" d="M81.7758 87.444H65.9158C65.8038 86.028 66.1318 81.42 65.8878 75.552C65.737 71.2026 65.2097 66.8744 64.3118 62.616C64.2398 62.296 64.1678 61.98 64.0918 61.66C64.0918 61.66 64.8918 61.496 66.0478 61.328C67.0038 61.188 68.2038 61.044 69.3798 60.988C71.6246 60.8599 73.875 60.8599 76.1198 60.988C77.1558 61.084 78.1678 61.256 78.9758 61.412C80.0078 61.62 80.7118 61.812 80.7118 61.812C80.7118 61.812 84.5238 70.768 81.7758 87.444Z" fill="#85C4FF"/>
<path d="M60.1484 158.344L62.5004 160.448L66.9724 155.788L64.6244 153.684L60.1484 158.344Z" fill="#B97964"/>
<path d="M68.1992 162.724H71.1632L71.5512 155.856H68.5832L68.1992 162.724Z" fill="#B97964"/>
<path d="M66.9725 155.792L64.6645 158.192L62.3125 156.088L64.6205 153.684L66.9725 155.792Z" fill="#A76755"/>
<path d="M68.5848 155.86H71.5528L71.3528 159.4H68.3848L68.5848 155.86Z" fill="#A76755"/>
<path d="M81.6248 87.292C81.6248 87.292 84.7488 108.916 85.8168 120.688C86.6728 130.128 66.2528 158.288 66.2528 158.288L62.3008 154.572C62.3008 154.572 77.2168 129.328 76.0688 118.816C74.9568 108.632 71.1888 87.28 71.1888 87.28L81.6248 87.292Z" fill="#26AE61"/>
<path opacity="0.7" d="M81.6248 87.292C81.6248 87.292 84.7488 108.916 85.8168 120.688C86.6728 130.128 66.2528 158.288 66.2528 158.288L62.3008 154.572C62.3008 154.572 77.2168 129.328 76.0688 118.816C74.9568 108.632 71.1888 87.28 71.1888 87.28L81.6248 87.292Z" fill="black"/>
<path d="M71.3191 162.4H67.9991C67.9713 162.399 67.9435 162.403 67.9174 162.413C67.8912 162.423 67.8673 162.437 67.8468 162.456C67.8264 162.475 67.8099 162.498 67.7983 162.523C67.7867 162.549 67.7802 162.576 67.7791 162.604L67.6191 165.24C67.6191 165.379 67.6737 165.512 67.7709 165.611C67.8682 165.709 68.0005 165.766 68.1391 165.768C69.2991 165.748 69.8511 165.676 71.3391 165.676C72.2391 165.676 76.0711 165.772 77.3151 165.772C78.5591 165.772 78.5151 164.54 77.9991 164.428C75.6311 163.928 72.6991 163.228 71.8631 162.584C71.7096 162.46 71.5166 162.395 71.3191 162.4Z" fill="#263238"/>
<path d="M63.148 159.6L60.288 157.676C60.2416 157.64 60.1846 157.62 60.126 157.62C60.0673 157.62 60.0103 157.64 59.964 157.676L57.78 159.88C57.7366 159.929 57.7046 159.986 57.6861 160.048C57.6676 160.111 57.6632 160.176 57.6731 160.241C57.6831 160.305 57.7072 160.366 57.7436 160.42C57.7801 160.474 57.828 160.519 57.884 160.552C59.708 161.956 61.024 163.012 62.06 164.18C63.26 165.548 63.912 165.74 66.712 165.74C68.008 165.74 68.74 164.648 68.212 164.48C63.544 163.004 64.792 162.36 63.66 160.196C63.5396 159.959 63.364 159.755 63.148 159.6Z" fill="#263238"/>
<path d="M95.752 68.24L96.7719 64.976L99.42 66.916C99.42 66.916 97.9719 69.824 96.9919 69.56L95.752 68.24Z" fill="#B97964"/>
<path d="M99.5595 63.728L101.051 65.556L99.4195 66.916L96.7715 64.976L99.5595 63.728Z" fill="#B97964"/>
<path opacity="0.2" d="M65.8885 75.552C65.7377 71.2026 65.2104 66.8744 64.3125 62.616C65.3725 62.524 67.1845 62.616 67.4845 64.34C67.8085 66.18 67.4005 70.508 65.8885 75.552Z" fill="black"/>
<path opacity="0.5" d="M76.0686 118.824C75.4966 113.58 74.2166 105.364 73.1166 98.636C73.6926 97.508 75.3046 95.228 75.3046 95.228C76.7526 100.232 79.9006 119.092 75.4126 144.568C70.7326 152.112 66.2526 158.296 66.2526 158.296L65.6406 148.568C69.9646 140.432 76.8646 126.1 76.0686 118.824Z" fill="black"/>
<path d="M66.968 65.968L66.268 67.168C66.028 67.584 65.796 68.004 65.572 68.428C65.116 69.276 64.6774 70.1294 64.256 70.988C63.856 71.848 63.456 72.712 63.1 73.576C62.7562 74.4282 62.4558 75.2974 62.2 76.18L62.152 76.34L62.128 76.424C62.1149 76.446 62.1067 76.4706 62.104 76.496C62.0918 76.6197 62.0918 76.7443 62.104 76.868C62.1453 77.2457 62.2244 77.6182 62.34 77.98C62.6172 78.8482 62.9554 79.6956 63.352 80.516C64.152 82.236 65.124 83.984 66.096 85.672L64.34 87.044C62.8813 85.5605 61.5624 83.9457 60.4 82.22C59.7836 81.3072 59.2482 80.3422 58.8 79.336C58.5471 78.762 58.3515 78.1645 58.216 77.552C58.138 77.1824 58.0978 76.8058 58.096 76.428C58.0931 76.2004 58.1091 75.973 58.144 75.748L58.172 75.584V75.48L58.216 75.276C58.6469 73.1637 59.311 71.1058 60.196 69.14C60.616 68.172 61.076 67.228 61.568 66.304C61.816 65.84 62.068 65.384 62.332 64.928C62.596 64.472 62.856 64.04 63.168 63.556L66.968 65.968Z" fill="#B97964"/>
<path d="M68.0276 67.06C67.2881 69.1085 66.4293 71.1119 65.4556 73.06C65.2436 73.5 65.0556 73.892 64.8876 74.208C64.6076 74.764 64.4316 75.1 64.4316 75.1L58.4316 71.772C58.4316 71.772 58.5076 71.52 58.6436 71.096C58.7476 70.776 58.8836 70.356 59.0436 69.872C60.0436 67.02 62.0876 61.932 64.0916 61.64C67.0876 61.224 69.2436 63.464 68.0276 67.06Z" fill="#26AE61"/>
<path opacity="0.2" d="M65.4567 73.08C65.2447 73.52 65.0567 73.912 64.8887 74.228L58.6367 71.116C58.7407 70.796 58.8767 70.376 59.0367 69.892L65.4567 73.08Z" fill="black"/>
<path d="M72.3721 162.896C72.1025 162.89 71.8343 162.855 71.5721 162.792C71.5587 162.788 71.5465 162.781 71.5366 162.771C71.5268 162.762 71.5197 162.749 71.5161 162.736C71.5146 162.723 71.5168 162.71 71.5225 162.698C71.5281 162.686 71.537 162.675 71.5481 162.668C71.6401 162.6 72.4841 162.028 72.8441 162.168C72.8852 162.184 72.9215 162.211 72.9495 162.245C72.9775 162.28 72.9963 162.32 73.0041 162.364C73.0223 162.429 73.0238 162.498 73.0084 162.563C72.993 162.629 72.9613 162.69 72.9161 162.74C72.7598 162.857 72.5663 162.912 72.3721 162.896ZM71.7721 162.692C72.3041 162.796 72.6921 162.78 72.8321 162.644C72.8608 162.61 72.8804 162.57 72.8888 162.526C72.8972 162.483 72.8942 162.438 72.8801 162.396C72.8772 162.375 72.8686 162.354 72.8552 162.338C72.8418 162.321 72.8242 162.308 72.8041 162.3C72.6081 162.224 72.1161 162.472 71.7721 162.692Z" fill="#26AE61"/>
<path d="M71.6 162.8C71.5896 162.803 71.5784 162.803 71.568 162.8C71.5579 162.794 71.5494 162.786 71.5431 162.776C71.5369 162.767 71.5331 162.756 71.532 162.744C71.532 162.708 71.464 161.856 71.764 161.568C71.8017 161.53 71.8478 161.502 71.8985 161.485C71.9493 161.468 72.0032 161.464 72.056 161.472C72.1149 161.475 72.1713 161.496 72.2167 161.534C72.2622 161.571 72.2942 161.623 72.308 161.68C72.376 162.004 71.932 162.624 71.636 162.8H71.6ZM72 161.6C71.9725 161.599 71.9452 161.604 71.9198 161.615C71.8943 161.625 71.8712 161.64 71.852 161.66C71.6874 161.944 71.6186 162.274 71.656 162.6C71.912 162.384 72.208 161.912 72.164 161.7C72.164 161.66 72.132 161.612 72.032 161.6H72Z" fill="#26AE61"/>
<path d="M65.068 161.2C64.5391 161.119 64.0341 160.924 63.588 160.628C63.5759 160.621 63.5663 160.61 63.5605 160.597C63.5548 160.584 63.5532 160.57 63.556 160.556C63.5591 160.542 63.5666 160.529 63.5773 160.519C63.588 160.509 63.6015 160.502 63.616 160.5C63.776 160.5 65.18 160.396 65.452 160.716C65.4741 160.744 65.4892 160.776 65.4961 160.811C65.5031 160.846 65.5017 160.882 65.492 160.916C65.4804 160.971 65.4553 161.023 65.419 161.066C65.3828 161.109 65.3364 161.143 65.284 161.164C65.2148 161.189 65.1416 161.201 65.068 161.2ZM63.868 160.624C64.508 160.976 65.012 161.128 65.236 161.024C65.269 161.011 65.2983 160.989 65.3212 160.962C65.3442 160.935 65.3603 160.903 65.368 160.868C65.3747 160.856 65.3782 160.843 65.3782 160.83C65.3782 160.817 65.3747 160.804 65.368 160.792C65.2 160.64 64.432 160.612 63.86 160.636L63.868 160.624Z" fill="#26AE61"/>
<path d="M63.6242 160.652C63.6124 160.652 63.6007 160.649 63.5902 160.644C63.5797 160.638 63.5708 160.63 63.5642 160.62C63.5592 160.609 63.5566 160.598 63.5566 160.586C63.5566 160.574 63.5592 160.563 63.5642 160.552C63.5882 160.504 64.1242 159.416 64.8082 159.752C64.9962 159.844 65.0162 159.956 65.0002 160.032C64.9282 160.352 64.0362 160.648 63.6282 160.66L63.6242 160.652ZM64.5482 159.824C64.1842 159.824 63.8722 160.288 63.7482 160.504C64.1762 160.448 64.8242 160.184 64.8642 159.996C64.8642 159.952 64.8322 159.912 64.7482 159.868C64.6858 159.838 64.6174 159.823 64.5482 159.824Z" fill="#26AE61"/>
<path d="M65.3003 85.044L68.2523 84.532L66.7363 87.948C66.7363 87.948 64.0403 87.948 64.1643 86.544L65.3003 85.044Z" fill="#B97964"/>
<path d="M70.4523 86.248L69.0683 89.008L66.7363 87.948L68.2523 84.532L70.4523 86.248Z" fill="#B97964"/>
<path d="M62.0605 154.356L66.4925 158.524L67.9165 156.992L62.8526 152.376L62.0605 154.356Z" fill="#26AE61"/>
<path opacity="0.7" d="M62.0605 154.356L66.4925 158.524L67.9165 156.992L62.8526 152.376L62.0605 154.356Z" fill="white"/>
<path d="M75.9998 87.292C75.9998 87.292 76.2838 109.956 75.8038 118.444C75.2758 127.744 72.6398 158.544 72.6398 158.544H67.1998C67.1998 158.544 67.3598 128.492 67.0358 119.288C66.6798 109.288 65.7598 87.288 65.7598 87.288L75.9998 87.292Z" fill="#26AE61"/>
<path opacity="0.7" d="M75.9998 87.292C75.9998 87.292 76.2838 109.956 75.8038 118.444C75.2758 127.744 72.6398 158.544 72.6398 158.544H67.1998C67.1998 158.544 67.3598 128.492 67.0358 119.288C66.6798 109.288 65.7598 87.288 65.7598 87.288L75.9998 87.292Z" fill="black"/>
<path d="M66.9715 158.544H72.8395L73.1675 156.484L66.6875 156.804L66.9715 158.544Z" fill="#26AE61"/>
<path opacity="0.7" d="M66.9715 158.544H72.8395L73.1675 156.484L66.6875 156.804L66.9715 158.544Z" fill="white"/>
<path opacity="0.2" d="M68.0276 67.06C67.2881 69.1085 66.4293 71.1119 65.4556 73.06C65.2436 73.5 65.0556 73.892 64.8876 74.208C64.6076 74.764 64.4316 75.1 64.4316 75.1L58.4316 71.772C58.4316 71.772 58.5076 71.52 58.6436 71.096C58.7476 70.776 58.8836 70.356 59.0436 69.872C60.0436 67.02 62.0876 61.932 64.0916 61.64C67.0876 61.224 69.2436 63.464 68.0276 67.06Z" fill="black"/>
<path d="M78.6521 63.296C78.3321 64.356 77.4521 65.772 74.9921 66.496L74.3521 66.688L73.7001 66.572C68.6801 65.672 66.8321 62.972 66.5001 62.448L65.8281 61.328C66.7841 61.188 67.9841 61.044 69.1601 60.988C71.405 60.8599 73.6553 60.8599 75.9001 60.988C76.9361 61.084 77.9481 61.256 78.7561 61.412C78.8677 62.0396 78.8321 62.6845 78.6521 63.296Z" fill="#26AE61"/>
<path opacity="0.4" d="M78.6521 63.296C78.3321 64.356 77.4521 65.772 74.9921 66.496L74.3521 66.688L73.7001 66.572C68.6801 65.672 66.8321 62.972 66.5001 62.448L65.8281 61.328C66.7841 61.188 67.9841 61.044 69.1601 60.988C71.405 60.8599 73.6553 60.8599 75.9001 60.988C76.9361 61.084 77.9481 61.256 78.7561 61.412C78.8677 62.0396 78.8321 62.6845 78.6521 63.296Z" fill="black"/>
<path d="M74.3992 63.8161C70.3752 63.0921 69.1152 61.0161 69.1152 61.0161C70.5832 59.5681 70.0192 55.6121 69.5152 53.4401L71.3192 54.9361L73.7752 56.9761C73.7024 57.3031 73.6503 57.6344 73.6192 57.9681C73.4872 59.3001 73.8312 60.5121 75.7912 60.9761C75.7992 60.9641 77.4232 62.9161 74.3992 63.8161Z" fill="#B97964"/>
<path d="M73.7847 56.964C73.7119 57.2911 73.6598 57.6224 73.6287 57.956C72.7127 57.772 71.4887 56.796 71.3607 55.86C71.3157 55.5501 71.3049 55.2362 71.3287 54.924L73.7847 56.964Z" fill="#A76755"/>
<path d="M75.4524 45.852C76.9164 46.512 77.7284 50.628 75.8524 51.516C73.9764 52.404 72.6844 44.6 75.4524 45.852Z" fill="#263238"/>
<path d="M68.7996 50.3041C69.4276 53.1881 69.6476 54.9041 71.3516 56.2201C71.9011 56.6529 72.5583 56.9274 73.2523 57.0141C73.9463 57.1007 74.6509 56.9961 75.2898 56.7116C75.9288 56.4272 76.4779 55.9736 76.8779 55.3998C77.2779 54.8261 77.5137 54.154 77.5596 53.4561C77.7836 50.7721 76.7196 46.5081 73.6836 45.6921C73.0314 45.4976 72.3395 45.4782 71.6774 45.6357C71.0153 45.7932 70.4062 46.1221 69.9114 46.5894C69.4166 47.0567 69.0534 47.6459 68.8582 48.2979C68.6631 48.9499 68.6429 49.6418 68.7996 50.3041Z" fill="#B97964"/>
<path d="M65.4356 47.444C64.0316 48.064 64.8276 49.984 65.7836 51.204C67.1076 52.9 68.5076 53.692 69.4596 52.912C70.3156 52.484 70.8796 49.96 70.1356 48.404C71.4516 47.536 74.1836 48.608 75.0356 47.204C75.8876 45.8 76.4956 45.916 77.9956 46.844C79.4956 47.772 80.6956 44.104 76.7956 43.42C78.9556 44.392 78.4596 46.284 76.8796 44.344C75.7636 42.976 73.0876 41.464 71.2276 43.504C69.8556 44.992 65.0356 42.692 65.4356 47.444Z" fill="#263238"/>
<path d="M68.1152 53.3121C68.5831 53.8748 69.2297 54.2603 69.9472 54.4041C70.8552 54.5561 71.0592 53.7161 70.5992 52.9001C70.1992 52.1681 69.2072 51.2041 68.3952 51.4201C67.5832 51.6361 67.5272 52.6041 68.1152 53.3121Z" fill="#B97964"/>
<path d="M73.3318 50.592C73.3678 50.828 73.5238 50.992 73.6798 50.992C73.8358 50.992 73.9318 50.768 73.8918 50.532C73.8518 50.296 73.7038 50.132 73.5478 50.132C73.3918 50.132 73.2958 50.352 73.3318 50.592Z" fill="#263238"/>
<path d="M76 50.272C76.036 50.508 76.192 50.672 76.348 50.672C76.504 50.672 76.6 50.444 76.564 50.208C76.528 49.972 76.372 49.808 76.216 49.808C76.06 49.808 76 50.036 76 50.272Z" fill="#263238"/>
<path d="M75.1992 50.492C75.596 51.1828 76.083 51.8176 76.6472 52.38C76.4998 52.5149 76.3244 52.6157 76.1336 52.6752C75.9428 52.7346 75.7412 52.7513 75.5432 52.724L75.1992 50.492Z" fill="#A24E3F"/>
<path d="M74.6528 53.476C74.3758 53.4794 74.1009 53.4269 73.8446 53.3218C73.5882 53.2166 73.3557 53.061 73.1608 52.864C73.1479 52.8506 73.1406 52.8327 73.1406 52.814C73.1406 52.7954 73.1479 52.7775 73.1608 52.764C73.1742 52.7511 73.1922 52.7438 73.2108 52.7438C73.2295 52.7438 73.2474 52.7511 73.2608 52.764C73.4766 52.9734 73.7369 53.1314 74.0222 53.2262C74.3076 53.3211 74.6106 53.3504 74.9088 53.312C74.9181 53.3109 74.9275 53.3117 74.9364 53.3144C74.9453 53.3171 74.9536 53.3215 74.9607 53.3275C74.9678 53.3335 74.9737 53.3409 74.9778 53.3493C74.9819 53.3576 74.9843 53.3667 74.9848 53.376C74.9866 53.3851 74.9863 53.3943 74.9841 53.4033C74.982 53.4122 74.9779 53.4205 74.9722 53.4278C74.9665 53.435 74.9593 53.4409 74.9512 53.4451C74.943 53.4492 74.934 53.4516 74.9248 53.452C74.8347 53.4656 74.7439 53.4736 74.6528 53.476Z" fill="#263238"/>
<path d="M72.3671 49.824C72.3448 49.83 72.3214 49.83 72.2991 49.824C72.2667 49.8055 72.2428 49.7752 72.2323 49.7393C72.2219 49.7035 72.2257 49.6651 72.2431 49.632C72.3483 49.4376 72.4989 49.2713 72.682 49.1474C72.8651 49.0234 73.0754 48.9455 73.2951 48.92C73.3287 48.9257 73.3591 48.9431 73.3811 48.9691C73.4031 48.9951 73.4152 49.028 73.4152 49.062C73.4152 49.0961 73.4031 49.129 73.3811 49.155C73.3591 49.181 73.3287 49.1984 73.2951 49.204C73.1227 49.2238 72.9578 49.2855 72.8148 49.3838C72.6718 49.4822 72.5552 49.6141 72.4751 49.768C72.4623 49.7847 72.446 49.7983 72.4273 49.808C72.4086 49.8177 72.3881 49.8232 72.3671 49.824Z" fill="#263238"/>
<path d="M77.0288 49.2C77.0057 49.1994 76.9831 49.1933 76.963 49.1821C76.9428 49.171 76.9256 49.1552 76.9128 49.136C76.816 48.9843 76.6856 48.857 76.5315 48.764C76.3775 48.6711 76.2041 48.6149 76.0248 48.6C75.9876 48.6 75.952 48.5853 75.9258 48.559C75.8995 48.5327 75.8848 48.4971 75.8848 48.46C75.8848 48.4229 75.8995 48.3873 75.9258 48.361C75.952 48.3348 75.9876 48.32 76.0248 48.32C76.2505 48.3329 76.4699 48.3995 76.6647 48.5143C76.8595 48.6291 77.0241 48.7888 77.1448 48.98C77.1554 48.9952 77.1629 49.0124 77.1668 49.0305C77.1708 49.0486 77.1711 49.0673 77.1677 49.0855C77.1644 49.1038 77.1574 49.1212 77.1473 49.1367C77.1372 49.1522 77.1241 49.1656 77.1088 49.176C77.0851 49.1917 77.0572 49.2001 77.0288 49.2Z" fill="#263238"/>
<g opacity="0.9">
<path opacity="0.9" d="M118.776 95.492C119.116 94.64 119.697 93.9054 120.448 93.3783C121.199 92.8512 122.087 92.5543 123.004 92.524H158.268C160.38 92.524 161.808 94.2361 161.468 96.3521L150.312 162.956C150.116 164.009 149.566 164.964 148.754 165.663C147.941 166.362 146.915 166.763 145.844 166.8H57.4203C56.9389 166.819 56.4596 166.727 56.0192 166.531C55.5788 166.336 55.1892 166.042 54.8802 165.672C54.5711 165.302 54.351 164.867 54.2366 164.399C54.1222 163.931 54.1167 163.443 54.2203 162.972L63.7043 106.272C63.905 105.222 64.4564 104.271 65.2682 103.576C66.08 102.88 67.104 102.481 68.1723 102.444H108.9C113.068 102.428 117.16 99.552 118.776 95.492Z" fill="#88FF99"/>
</g>
<path opacity="0.5" d="M118.776 95.492C119.116 94.64 119.697 93.9054 120.448 93.3783C121.199 92.8512 122.087 92.5543 123.004 92.524H158.268C160.38 92.524 161.808 94.2361 161.468 96.3521L150.312 162.956C150.116 164.009 149.566 164.964 148.754 165.663C147.941 166.362 146.915 166.763 145.844 166.8H57.4203C56.9389 166.819 56.4596 166.727 56.0192 166.531C55.5788 166.336 55.1892 166.042 54.8802 165.672C54.5711 165.302 54.351 164.867 54.2366 164.399C54.1222 163.931 54.1167 163.443 54.2203 162.972L63.7043 106.272C63.905 105.222 64.4564 104.271 65.2682 103.576C66.08 102.88 67.104 102.481 68.1723 102.444H108.9C113.068 102.428 117.16 99.552 118.776 95.492Z" fill="#88FF99"/>
<path opacity="0.9" d="M104.741 36.356L78.0566 129.076L139.097 146.64L165.777 53.92L104.741 36.356Z" fill="#88FF99"/>
<path opacity="0.7" d="M104.741 36.356L78.0566 129.076L139.097 146.64L165.777 53.92L104.741 36.356Z" fill="white"/>
<g style="mix-blend-mode:multiply" opacity="0.9">
<path d="M103.557 40.4641L78.0566 129.076L137.021 146.044L160.921 54.332L103.557 40.4641Z" fill="#88FF99"/>
</g>
<path opacity="0.6" d="M103.557 40.4641L78.0566 129.076L137.021 146.044L160.921 54.332L103.557 40.4641Z" fill="#88FF99"/>
<g opacity="0.9">
<g style="mix-blend-mode:multiply" opacity="0.9">
<path d="M103.557 40.4641L78.0566 129.076L137.021 146.044L160.921 54.332L103.557 40.4641Z" fill="white"/>
</g>
<path opacity="0.6" d="M103.557 40.4641L78.0566 129.076L137.021 146.044L160.921 54.332L103.557 40.4641Z" fill="white"/>
</g>
<path d="M125.17 65.5675C129.171 60.9927 128.705 54.0409 124.131 50.0402C119.556 46.0396 112.604 46.505 108.603 51.0797C104.603 55.6545 105.068 62.6063 109.643 66.607C114.218 70.6077 121.169 70.1423 125.17 65.5675Z" fill="#88FF99"/>
<path d="M114.471 66.692C112.815 66.2134 111.337 65.2543 110.226 63.9361C109.114 62.6179 108.418 60.9997 108.226 59.2861C108.034 57.5725 108.354 55.8405 109.146 54.3088C109.939 52.7772 111.167 51.5149 112.677 50.6813C114.186 49.8477 115.909 49.4804 117.627 49.6258C119.345 49.7711 120.982 50.4226 122.33 51.4979C123.678 52.5732 124.677 54.024 125.2 55.6669C125.724 57.3098 125.749 59.0711 125.271 60.728C124.955 61.8293 124.424 62.8574 123.71 63.7534C122.995 64.6493 122.111 65.3957 121.108 65.9496C120.105 66.5036 119.002 66.8543 117.864 66.9817C116.725 67.1091 115.572 67.0106 114.471 66.692Z" fill="white"/>
<path d="M121.131 75.8745L101.703 70.2852L100.447 74.6521L119.875 80.2413L121.131 75.8745Z" fill="#88FF99"/>
<path d="M101.842 110.112L91.1328 107.031L86.2491 124.007L96.9588 127.088L101.842 110.112Z" fill="#88FF99"/>
<path d="M139.739 121.017L129.029 117.936L124.146 134.911L134.855 137.992L139.739 121.017Z" fill="#88FF99"/>
<path d="M120.788 115.567L110.078 112.486L105.194 129.461L115.904 132.542L120.788 115.567Z" fill="#88FF99"/>
<path d="M136.828 80.3873L123.686 76.6063L122.429 80.9731L135.572 84.7542L136.828 80.3873Z" fill="#88FF99"/>
<path d="M147.066 93.6068L98.9727 79.7708L98.4551 81.5698L146.548 95.4058L147.066 93.6068Z" fill="white"/>
<path d="M121.787 90.4731L97.873 83.5933L97.3555 85.3923L121.27 92.2721L121.787 90.4731Z" fill="white"/>
<path d="M141.872 96.2519L125.877 91.6502L125.359 93.4492L141.355 98.0509L141.872 96.2519Z" fill="white"/>
<path d="M135.218 98.4731L96.7734 87.4129L96.2559 89.2119L134.701 100.272L135.218 98.4731Z" fill="white"/>
<path d="M139.379 104.348L95.2344 91.4728L94.7102 93.27L138.855 106.145L139.379 104.348Z" fill="white"/>
<path d="M99.6772 96.529L94.5723 95.0604L94.0547 96.8594L99.1596 98.328L99.6772 96.529Z" fill="white"/>
<path d="M126.331 104.198L103.773 97.7086L103.256 99.5076L125.813 105.997L126.331 104.198Z" fill="white"/>
<path d="M141.566 112.721L93.4727 98.8851L92.9551 100.684L141.048 114.52L141.566 112.721Z" fill="white"/>
<path d="M97.6358 39.6L74.1758 133.2L135.776 148.644L159.232 55.044L97.6358 39.6Z" fill="#88FF99"/>
<path opacity="0.8" d="M97.6358 39.6L74.1758 133.2L135.776 148.644L159.232 55.044L97.6358 39.6Z" fill="#88FF99"/>
<path d="M115.32 71.0101C120.793 68.367 123.086 61.788 120.443 56.3155C117.8 50.8431 111.221 48.5494 105.749 51.1926C100.276 53.8357 97.9825 60.4147 100.626 65.8872C103.269 71.3596 109.848 73.6533 115.32 71.0101Z" fill="#88FF99"/>
<path d="M119.104 62.6795C119.971 57.9422 116.833 53.3992 112.096 52.5323C107.358 51.6654 102.815 54.803 101.949 59.5402C101.082 64.2775 104.219 68.8205 108.956 69.6874C113.694 70.5543 118.237 67.4168 119.104 62.6795Z" fill="white"/>
<path d="M115.385 78.5176L95.7754 73.603L94.6707 78.0106L114.28 82.9253L115.385 78.5176Z" fill="white"/>
<path d="M97.2901 113.404L86.4805 110.694L82.1862 127.828L92.9959 130.538L97.2901 113.404Z" fill="white"/>
<path d="M135.534 122.99L124.725 120.281L120.43 137.415L131.24 140.124L135.534 122.99Z" fill="white"/>
<path d="M116.413 118.197L105.604 115.488L101.309 132.622L112.119 135.331L116.413 118.197Z" fill="white"/>
<path d="M131.225 82.486L117.959 79.1613L116.854 83.569L130.12 86.8937L131.225 82.486Z" fill="white"/>
<path d="M141.914 95.3422L93.3711 83.1761L92.916 84.992L141.459 97.158L141.914 95.3422Z" fill="white"/>
<path d="M116.544 93.0827L92.4062 87.0332L91.9512 88.849L116.089 94.8985L116.544 93.0827Z" fill="white"/>
<path d="M136.817 98.1623L120.672 94.116L120.217 95.9319L136.361 99.9781L136.817 98.1623Z" fill="white"/>
<path d="M130.241 100.617L91.4375 90.8916L90.9824 92.7074L129.786 102.433L130.241 100.617Z" fill="white"/>
<path d="M135.079 105.932L90.4746 94.7532L90.0195 96.5691L134.624 107.748L135.079 105.932Z" fill="white"/>
<path d="M94.6565 99.9066L89.5039 98.6152L89.0488 100.431L94.2014 101.722L94.6565 99.9066Z" fill="white"/>
<path d="M121.561 106.644L98.793 100.938L98.3379 102.754L121.106 108.46L121.561 106.644Z" fill="white"/>
<path d="M137.08 114.636L88.5371 102.47L88.082 104.285L136.625 116.451L137.08 114.636Z" fill="white"/>
<path opacity="0.5" d="M95.2242 109.396C95.3002 107.896 96.6122 106.836 98.3962 106.836H133.664C135.776 106.836 137.812 108.312 138.212 110.136L148.8 163.48C149.2 165.304 147.808 166.784 145.696 166.784H57.2602C55.1442 166.784 53.1082 165.304 52.7082 163.48L44.0002 118.684C43.6002 116.86 44.9922 115.38 47.1082 115.38H87.8202C92.0002 115.38 95.0562 112.9 95.2242 109.396Z" fill="#88FF99"/>
</svg>
