<svg width="200" height="200" viewBox="0 0 200 200" fill="none" xmlns="http://www.w3.org/2000/svg">
<path d="M166 113.696C164.348 106.988 156.208 97.628 149.16 95.072C140.16 91.808 135.764 97.12 127.88 96.212C106.592 93.756 98.0518 76.844 87.0798 61.54C62.7998 27.624 14.7118 42.58 28.5198 86.992C36.8158 113.684 68.5198 154.02 100.592 127.164C114.448 115.564 108.444 108.94 127.104 119.116C134.468 123.132 173.48 144.08 166 113.696Z" fill="#88FF99"/>
<path opacity="0.9" d="M166 113.696C164.348 106.988 156.208 97.628 149.16 95.072C140.16 91.808 135.764 97.12 127.88 96.212C106.592 93.756 98.0518 76.844 87.0798 61.54C62.7998 27.624 14.7118 42.58 28.5198 86.992C36.8158 113.684 68.5198 154.02 100.592 127.164C114.448 115.564 108.444 108.94 127.104 119.116C134.468 123.132 173.48 144.08 166 113.696Z" fill="white"/>
<path d="M99.9994 171.024C142.832 171.024 177.555 168.997 177.555 166.496C177.555 163.995 142.832 161.968 99.9994 161.968C57.1664 161.968 22.4434 163.995 22.4434 166.496C22.4434 168.997 57.1664 171.024 99.9994 171.024Z" fill="#F5F5F5"/>
<path d="M147.953 164.212H147.525C147.435 164.205 147.352 164.166 147.289 164.102C147.226 164.038 147.189 163.953 147.185 163.864L144.553 145.536H146.553L148.297 163.744C148.306 163.797 148.305 163.852 148.293 163.905C148.281 163.958 148.258 164.008 148.225 164.052C148.193 164.096 148.152 164.133 148.106 164.16C148.059 164.188 148.007 164.205 147.953 164.212Z" fill="#88FF99"/>
<path opacity="0.3" d="M147.953 164.212H147.525C147.435 164.205 147.352 164.166 147.289 164.102C147.226 164.038 147.189 163.953 147.185 163.864L144.553 145.536H146.553L148.297 163.744C148.306 163.797 148.305 163.852 148.293 163.905C148.281 163.958 148.258 164.008 148.225 164.052C148.193 164.096 148.152 164.133 148.106 164.16C148.059 164.188 148.007 164.205 147.953 164.212Z" fill="black"/>
<path d="M153.44 164.212H153.012C152.923 164.205 152.839 164.166 152.776 164.102C152.714 164.038 152.677 163.953 152.672 163.864L150.04 145.536H152.04L153.788 163.744C153.798 163.798 153.796 163.853 153.784 163.906C153.771 163.959 153.748 164.009 153.715 164.053C153.683 164.097 153.641 164.134 153.594 164.161C153.547 164.188 153.494 164.206 153.44 164.212Z" fill="#88FF99"/>
<path opacity="0.3" d="M153.44 164.212H153.012C152.923 164.205 152.839 164.166 152.776 164.102C152.714 164.038 152.677 163.953 152.672 163.864L150.04 145.536H152.04L153.788 163.744C153.798 163.798 153.796 163.853 153.784 163.906C153.771 163.959 153.748 164.009 153.715 164.053C153.683 164.097 153.641 164.134 153.594 164.161C153.547 164.188 153.494 164.206 153.44 164.212Z" fill="black"/>
<path d="M122.864 164.212H123.292C123.381 164.205 123.465 164.166 123.528 164.102C123.59 164.038 123.627 163.953 123.632 163.864L126.264 145.536H124.264L122.52 163.744C122.51 163.797 122.512 163.852 122.524 163.905C122.536 163.958 122.559 164.008 122.591 164.052C122.624 164.096 122.664 164.133 122.711 164.16C122.758 164.188 122.81 164.205 122.864 164.212Z" fill="#88FF99"/>
<path opacity="0.3" d="M122.864 164.212H123.292C123.381 164.205 123.465 164.166 123.528 164.102C123.59 164.038 123.627 163.953 123.632 163.864L126.264 145.536H124.264L122.52 163.744C122.51 163.797 122.512 163.852 122.524 163.905C122.536 163.958 122.559 164.008 122.591 164.052C122.624 164.096 122.664 164.133 122.711 164.16C122.758 164.188 122.81 164.205 122.864 164.212Z" fill="black"/>
<path d="M117.377 164.212H117.805C117.894 164.205 117.978 164.166 118.04 164.102C118.103 164.038 118.14 163.953 118.145 163.864L120.777 145.536H118.777L117.033 163.744C117.023 163.797 117.024 163.852 117.037 163.905C117.049 163.958 117.072 164.008 117.104 164.052C117.136 164.096 117.177 164.133 117.224 164.16C117.271 164.188 117.323 164.205 117.377 164.212Z" fill="#88FF99"/>
<path opacity="0.3" d="M117.377 164.212H117.805C117.894 164.205 117.978 164.166 118.04 164.102C118.103 164.038 118.14 163.953 118.145 163.864L120.777 145.536H118.777L117.033 163.744C117.023 163.797 117.024 163.852 117.037 163.905C117.049 163.958 117.072 164.008 117.104 164.052C117.136 164.096 117.177 164.133 117.224 164.16C117.271 164.188 117.323 164.205 117.377 164.212Z" fill="black"/>
<path d="M110.265 123.804H123.737C126.137 115.504 134.729 108.956 143.537 108.956H147.913C157.113 108.956 163.081 116.128 161.201 124.98C160.849 126.608 160.272 128.18 159.485 129.648L157.361 142.524C157.089 144.188 155.761 145.536 154.401 145.536H113.849C112.489 145.536 111.161 144.188 110.889 142.524L108.297 126.8C108.021 125.152 108.905 123.804 110.265 123.804Z" fill="#88FF99"/>
<path opacity="0.5" d="M110.265 123.804H123.737C126.137 115.504 134.729 108.956 143.537 108.956H147.913C157.113 108.956 163.081 116.128 161.201 124.98C160.849 126.608 160.272 128.18 159.485 129.648L157.361 142.524C157.089 144.188 155.761 145.536 154.401 145.536H113.849C112.489 145.536 111.161 144.188 110.889 142.524L108.297 126.8C108.021 125.152 108.905 123.804 110.265 123.804Z" fill="white"/>
<path d="M106.892 159.472L110.228 161C110.285 161.024 110.33 161.069 110.354 161.126C110.378 161.183 110.379 161.247 110.356 161.304L109.304 164.02C109.241 164.159 109.126 164.267 108.984 164.321C108.841 164.375 108.683 164.37 108.544 164.308C107.392 163.756 106.868 163.432 105.4 162.76C103.849 161.993 102.349 161.125 100.912 160.16C99.8243 159.36 100.624 158.28 101.164 158.52C103.604 159.596 105.164 159.692 106.296 159.42C106.495 159.368 106.706 159.387 106.892 159.472Z" fill="#263238"/>
<path d="M130.552 118.572C130.552 118.572 109.22 118.836 108.888 127.244C108.416 139.332 106.632 159.4 106.632 159.4L110.232 161C110.232 161 116.536 140.864 116.76 131.424C122.76 129.936 138.188 131.424 140 126.52C140.888 123.969 141.123 121.237 140.684 118.572H130.552Z" fill="#88FF99"/>
<path opacity="0.2" d="M130.552 118.572C130.552 118.572 109.22 118.836 108.888 127.244C108.416 139.332 106.632 159.4 106.632 159.4L110.232 161C110.232 161 116.536 140.864 116.76 131.424C122.76 129.936 138.188 131.424 140 126.52C140.888 123.969 141.123 121.237 140.684 118.572H130.552Z" fill="black"/>
<path d="M135.092 96.448C134.904 97.224 134.716 97.924 134.504 98.652C134.292 99.38 134.072 100.088 133.84 100.8C133.372 102.224 132.856 103.64 132.264 105.04C131.671 106.471 130.983 107.861 130.204 109.2C129.795 109.908 129.344 110.591 128.852 111.244C128.311 111.968 127.686 112.625 126.992 113.204L126.932 113.256L126.804 113.352C126.4 113.616 125.94 113.78 125.46 113.832C125.159 113.869 124.854 113.869 124.552 113.832C124.133 113.781 123.721 113.681 123.324 113.536C122.709 113.314 122.111 113.047 121.536 112.736C120.51 112.165 119.517 111.535 118.564 110.848C117.636 110.18 116.74 109.488 115.868 108.768C114.996 108.048 114.16 107.312 113.332 106.52C113.12 106.314 112.989 106.038 112.965 105.742C112.941 105.447 113.024 105.154 113.2 104.915C113.376 104.677 113.632 104.511 113.921 104.447C114.21 104.383 114.512 104.426 114.772 104.568H114.792C115.736 105.092 116.688 105.648 117.644 106.168C118.6 106.688 119.544 107.212 120.492 107.7C121.44 108.188 122.392 108.652 123.292 109.028C123.705 109.204 124.132 109.346 124.568 109.452C124.698 109.491 124.833 109.508 124.968 109.504C124.996 109.504 124.968 109.504 124.884 109.504C124.68 109.527 124.485 109.6 124.316 109.716L124.124 109.86C124.518 109.477 124.866 109.048 125.16 108.584C125.511 108.057 125.833 107.511 126.124 106.948C126.738 105.741 127.286 104.502 127.768 103.236C128.26 101.948 128.72 100.628 129.148 99.292C129.576 97.956 129.976 96.584 130.348 95.292V95.244C130.518 94.6237 130.925 94.0952 131.481 93.7726C132.038 93.45 132.699 93.3593 133.321 93.5201C133.944 93.6809 134.478 94.0803 134.809 94.6319C135.14 95.1835 135.24 95.8431 135.088 96.468L135.092 96.448Z" fill="#263238"/>
<path d="M126.444 161.2H130.444C130.478 161.198 130.511 161.203 130.542 161.215C130.574 161.226 130.603 161.244 130.627 161.267C130.652 161.289 130.672 161.317 130.686 161.347C130.699 161.378 130.707 161.411 130.708 161.444L130.904 164.608C130.904 164.775 130.839 164.935 130.722 165.054C130.605 165.172 130.447 165.241 130.28 165.244C128.888 165.22 128.22 165.136 126.46 165.136C125.38 165.136 123.196 165.248 121.7 165.248C120.204 165.248 120.248 163.772 120.88 163.648C123.724 163.048 124.824 162.22 125.828 161.428C126.003 161.287 126.219 161.207 126.444 161.2Z" fill="#263238"/>
<path d="M136.301 118.572C136.301 118.572 116.953 120.204 117.429 128.608C117.949 137.808 126.445 161.208 126.445 161.208H130.357C130.357 161.208 127.009 139.78 125.829 130.408C131.285 130.408 143.933 131.432 145.749 126.516C146.637 123.965 146.87 121.232 146.429 118.568L136.301 118.572Z" fill="#88FF99"/>
<path d="M115.072 104.96C114.77 104.468 114.404 104.019 113.984 103.624C113.184 104.368 112.748 106.532 112.748 106.532L113.84 106.628C113.84 106.628 115.096 106.22 115.072 104.96Z" fill="#88FF99"/>
<path d="M111.056 103.016L109.812 102.476C109.65 102.406 109.469 102.397 109.301 102.451C109.133 102.505 108.991 102.617 108.9 102.768L108.308 103.744C108.226 103.881 108.192 104.042 108.21 104.201C108.228 104.36 108.297 104.508 108.408 104.624L110.116 106.404L112.964 106.288C113.125 106.283 113.281 106.234 113.417 106.147C113.553 106.061 113.663 105.94 113.736 105.796L114.064 105.152C114.167 104.958 114.195 104.733 114.143 104.52C114.091 104.306 113.961 104.12 113.78 103.996C112.856 103.388 111.056 103.016 111.056 103.016Z" fill="#FFC3BD"/>
<path d="M130.369 95.628C129.801 99.228 129.061 107 130.569 118.72L146.429 118.572C146.333 110.448 147.605 102.824 148.849 95.372C148.898 95.0794 148.888 94.7798 148.82 94.4911C148.751 94.2024 148.625 93.9304 148.449 93.6913C148.274 93.4521 148.052 93.2507 147.797 93.099C147.542 92.9473 147.259 92.8483 146.965 92.808C142.416 92.276 137.821 92.276 133.273 92.808C132.551 92.9065 131.88 93.2334 131.357 93.7408C130.835 94.2482 130.488 94.9095 130.369 95.628Z" fill="#263238"/>
<path d="M148.992 94.36C149.46 95.516 149.832 96.624 150.216 97.768C150.6 98.912 150.928 100.06 151.244 101.224C151.56 102.388 151.836 103.576 152.044 104.788C152.286 106.026 152.448 107.278 152.528 108.536C152.552 108.86 152.556 109.196 152.56 109.532V110.044C152.554 110.57 152.417 111.085 152.16 111.544C151.989 111.842 151.764 112.105 151.496 112.32C151.371 112.42 151.237 112.508 151.096 112.584C150.968 112.655 150.834 112.713 150.696 112.76C150.32 112.9 149.921 112.97 149.52 112.968C149.046 112.957 148.575 112.883 148.12 112.748C147.454 112.548 146.807 112.292 146.184 111.984C145.604 111.696 145.06 111.396 144.528 111.084C142.46 109.849 140.497 108.446 138.66 106.888C138.429 106.698 138.275 106.431 138.229 106.135C138.182 105.84 138.246 105.538 138.407 105.286C138.568 105.035 138.816 104.851 139.104 104.77C139.392 104.689 139.699 104.717 139.968 104.848H139.996C142.064 105.832 144.168 106.848 146.216 107.692C146.728 107.9 147.236 108.092 147.736 108.264C148.179 108.427 148.635 108.551 149.1 108.636C149.284 108.668 149.448 108.664 149.428 108.636C149.32 108.626 149.21 108.645 149.112 108.692C149.049 108.716 148.988 108.744 148.928 108.776C148.852 108.817 148.779 108.865 148.712 108.92C148.554 109.043 148.418 109.194 148.312 109.364C148.192 109.563 148.121 109.788 148.104 110.02L148.084 109.656C148.06 109.408 148.04 109.164 148.004 108.908C147.671 106.739 147.171 104.6 146.508 102.508C145.868 100.36 145.132 98.168 144.384 96.084V96.064C144.177 95.4633 144.212 94.8058 144.481 94.2303C144.75 93.6549 145.233 93.2066 145.826 92.9802C146.42 92.7538 147.078 92.767 147.662 93.017C148.246 93.267 148.71 93.7342 148.956 94.32L148.992 94.36Z" fill="#263238"/>
<path d="M142.652 84.764L140.736 86.364L138.12 88.536C138.201 88.8823 138.257 89.2339 138.288 89.588C138.412 90.852 138.136 92.012 136.604 92.6C136.313 92.6954 136.048 92.8565 135.828 93.0708C135.609 93.2851 135.442 93.5469 135.34 93.836C135.132 94.504 135.376 95.252 137.48 95.252C140.572 95.252 142.184 93.876 142.792 93.2C142.874 93.1061 142.921 92.9873 142.926 92.8629C142.931 92.7386 142.894 92.6163 142.82 92.516C141.6 90.772 142.152 86.932 142.652 84.764Z" fill="#FFC3BD"/>
<path d="M137.404 94.564C137.538 94.7194 137.631 94.9067 137.672 95.108C137.831 94.8929 138.027 94.7086 138.252 94.564C138.518 94.6891 138.754 94.8693 138.945 95.0928C139.137 95.3162 139.278 95.5778 139.36 95.86C138.777 95.7406 138.216 95.5329 137.696 95.244C137.353 95.4341 136.974 95.5512 136.584 95.588C136.608 94.896 137.404 94.564 137.404 94.564Z" fill="#88FF99"/>
<path d="M138.252 94.564C138.807 95.2327 139.173 96.0379 139.312 96.896C139.312 96.896 144.432 95.616 144.192 92.276C143.742 92.0635 143.264 91.9167 142.772 91.84C142.772 91.84 141.672 93.84 138.252 94.564Z" fill="#88FF99"/>
<path d="M137.404 94.564C136.844 95.238 136.457 96.0385 136.276 96.896C136.276 96.896 133.652 94.496 136.208 92.304C136.65 92.1637 137.104 92.0685 137.564 92.02C137.564 92.02 135.864 93.4 137.404 94.564Z" fill="#88FF99"/>
<path opacity="0.2" d="M138.12 88.524C138.2 88.8717 138.257 89.2246 138.288 89.58C139.264 89.384 140.564 88.348 140.688 87.352C140.736 87.0223 140.748 86.6883 140.724 86.356L138.12 88.524Z" fill="black"/>
<path d="M135.32 77.876C132.92 79.584 134.256 83.588 136.312 82.056C138.368 80.524 137.28 76.484 135.32 77.876Z" fill="#263238"/>
<path d="M143.445 81.444C142.777 84.508 142.545 86.332 140.733 87.732C140.149 88.1929 139.45 88.4856 138.712 88.5783C137.974 88.671 137.225 88.5602 136.546 88.2579C135.866 87.9556 135.282 87.4733 134.857 86.8631C134.431 86.253 134.181 85.5382 134.133 84.796C133.893 81.94 135.025 77.404 138.249 76.536C138.943 76.3291 139.679 76.3084 140.383 76.4761C141.088 76.6437 141.736 76.9937 142.262 77.491C142.789 77.9883 143.175 78.6154 143.383 79.3092C143.59 80.0031 143.612 80.7393 143.445 81.444Z" fill="#FFC3BD"/>
<path d="M142.025 79.168C140.325 78.7 135.941 79.816 134.385 78.156C132.717 76.376 135.149 75.508 135.869 76.128C134.961 75.088 135.297 73.976 136.585 74.076C137.525 74.148 137.821 75.188 137.821 75.188C137.821 75.188 137.665 73.368 139.281 73.496C140.745 73.608 140.749 75.584 140.749 75.584C140.749 75.584 144.245 74.596 145.413 77.932C147.613 77.884 147.565 82.516 143.137 84.164C141.341 83.276 141.257 80.116 142.025 79.168Z" fill="#263238"/>
<path d="M144.941 78.6C144.825 78.607 144.712 78.5689 144.624 78.4936C144.537 78.4183 144.482 78.3119 144.472 78.1969C144.461 78.0819 144.496 77.9673 144.569 77.8775C144.641 77.7878 144.746 77.7298 144.861 77.716C144.981 77.6399 145.072 77.5259 145.121 77.392C145.185 77.264 145.223 77.1241 145.231 76.981C145.239 76.8379 145.218 76.6946 145.169 76.56C145.135 76.5065 145.113 76.4465 145.105 76.384C145.096 76.3214 145.101 76.2577 145.119 76.1972C145.137 76.1367 145.168 76.0807 145.209 76.033C145.251 75.9853 145.302 75.947 145.359 75.9206C145.417 75.8942 145.479 75.8804 145.542 75.88C145.605 75.8796 145.668 75.8927 145.725 75.9184C145.783 75.9441 145.835 75.9818 145.877 76.029C145.918 76.0761 145.95 76.1317 145.969 76.192C146.077 76.4598 146.125 76.7484 146.109 77.0368C146.092 77.3253 146.011 77.6065 145.873 77.86C145.794 78.0394 145.676 78.1985 145.527 78.3253C145.378 78.4521 145.202 78.5434 145.013 78.592C144.989 78.598 144.965 78.6007 144.941 78.6Z" fill="#263238"/>
<path d="M143.945 84.288C143.529 84.8281 142.93 85.1979 142.261 85.328C141.393 85.484 141.129 84.684 141.513 83.912C141.857 83.212 142.713 82.292 143.513 82.492C144.313 82.692 144.457 83.6 143.945 84.288Z" fill="#FFC3BD"/>
<path d="M138.192 81.724C138.152 81.976 137.988 82.164 137.824 82.144C137.66 82.124 137.556 81.904 137.592 81.652C137.628 81.4 137.796 81.212 137.964 81.252C138.132 81.292 138.228 81.472 138.192 81.724Z" fill="#263238"/>
<path d="M135.337 81.384C135.297 81.636 135.133 81.824 134.969 81.784C134.805 81.744 134.701 81.544 134.737 81.292C134.773 81.04 134.941 80.852 135.109 80.872C135.277 80.892 135.377 81.132 135.337 81.384Z" fill="#263238"/>
<path d="M136.209 81.484C135.891 82.1334 135.487 82.7374 135.009 83.28C135.15 83.3932 135.315 83.4738 135.492 83.516C135.668 83.5581 135.851 83.5609 136.029 83.524L136.209 81.484Z" fill="#ED847E"/>
<path d="M137.2 84.82C137.497 84.8239 137.792 84.7679 138.067 84.6551C138.342 84.5424 138.591 84.3754 138.8 84.164C138.81 84.1488 138.814 84.1306 138.812 84.1126C138.809 84.0947 138.8 84.0782 138.787 84.0661C138.773 84.0541 138.756 84.0472 138.738 84.0468C138.72 84.0464 138.702 84.0525 138.688 84.064C138.46 84.2897 138.183 84.4601 137.878 84.562C137.574 84.6639 137.25 84.6947 136.932 84.652C136.913 84.6506 136.894 84.6564 136.878 84.6682C136.863 84.6799 136.852 84.6969 136.848 84.716C136.847 84.726 136.848 84.7361 136.851 84.7457C136.854 84.7554 136.858 84.7644 136.865 84.7722C136.871 84.78 136.879 84.7865 136.888 84.7912C136.896 84.796 136.906 84.799 136.916 84.8C137.01 84.812 137.105 84.8187 137.2 84.82Z" fill="#263238"/>
<path d="M139.34 80.272C139.364 80.2671 139.386 80.256 139.404 80.24C139.418 80.2262 139.43 80.2097 139.437 80.1915C139.445 80.1733 139.449 80.1538 139.449 80.134C139.449 80.1143 139.445 80.0947 139.437 80.0765C139.43 80.0583 139.418 80.0418 139.404 80.028C139.253 79.8487 139.059 79.7097 138.84 79.6232C138.622 79.5366 138.386 79.5053 138.152 79.532C138.133 79.5352 138.114 79.5421 138.097 79.5525C138.081 79.5628 138.066 79.5764 138.055 79.5923C138.043 79.6083 138.035 79.6264 138.03 79.6455C138.026 79.6647 138.025 79.6846 138.028 79.704C138.031 79.7234 138.038 79.7421 138.049 79.7588C138.059 79.7756 138.073 79.7901 138.089 79.8016C138.105 79.8131 138.123 79.8214 138.142 79.8259C138.161 79.8304 138.181 79.8312 138.2 79.828C138.384 79.8102 138.57 79.8372 138.742 79.9069C138.913 79.9765 139.065 80.0867 139.184 80.228C139.203 80.2497 139.228 80.2654 139.256 80.2733C139.283 80.2811 139.313 80.2806 139.34 80.272Z" fill="#263238"/>
<path d="M134.317 80.108C134.34 80.1145 134.364 80.1153 134.388 80.1105C134.412 80.1056 134.434 80.0952 134.453 80.08C134.596 79.9524 134.767 79.8599 134.953 79.8099C135.138 79.7599 135.332 79.7538 135.521 79.792C135.559 79.802 135.599 79.7967 135.634 79.7773C135.668 79.7578 135.693 79.7259 135.705 79.688C135.71 79.6691 135.712 79.6493 135.709 79.6298C135.707 79.6102 135.701 79.5913 135.691 79.5742C135.682 79.5571 135.669 79.542 135.653 79.53C135.637 79.5179 135.62 79.5091 135.601 79.504C135.366 79.4534 135.123 79.4586 134.891 79.519C134.659 79.5795 134.445 79.6935 134.265 79.852C134.234 79.877 134.215 79.9129 134.212 79.9519C134.208 79.9909 134.22 80.0298 134.245 80.06C134.263 80.083 134.288 80.0998 134.317 80.108Z" fill="#263238"/>
<path d="M139.525 102.776L137.773 101.688C137.648 101.61 137.509 101.558 137.364 101.534C137.219 101.511 137.071 101.516 136.928 101.55C136.785 101.585 136.65 101.647 136.531 101.734C136.413 101.821 136.313 101.93 136.237 102.056L136.033 102.4C135.911 102.6 135.856 102.835 135.876 103.068C135.896 103.302 135.99 103.523 136.145 103.7L137.345 105.088C137.345 105.088 138.397 107.54 139.617 106.892L140.545 105.292L139.525 102.776Z" fill="#FFC3BD"/>
<path d="M141.329 105.912C141.089 105.331 140.777 104.783 140.401 104.28C139.521 105.032 138.801 107.432 138.801 107.432L139.877 107.664C140.268 107.554 140.617 107.328 140.876 107.015C141.136 106.702 141.293 106.317 141.329 105.912Z" fill="#88FF99"/>
<path d="M154.733 123.804H133.965C132.605 123.804 131.725 125.152 131.997 126.816L134.589 142.524C134.865 144.188 136.189 145.536 137.553 145.536H152.161L154.733 123.804Z" fill="#88FF99"/>
<path opacity="0.5" d="M154.733 123.804H133.965C132.605 123.804 131.725 125.152 131.997 126.816L134.589 142.524C134.865 144.188 136.189 145.536 137.553 145.536H152.161L154.733 123.804Z" fill="white"/>
<path d="M58.9115 165.56H59.5115C59.6176 165.56 59.7193 165.518 59.7943 165.443C59.8693 165.368 59.9115 165.266 59.9115 165.16L63.1995 115.6H60.7235L58.5235 165.104C58.5155 165.16 58.5196 165.217 58.5354 165.271C58.5511 165.326 58.5782 165.376 58.6149 165.419C58.6516 165.462 58.697 165.497 58.7481 165.521C58.7992 165.546 58.8549 165.559 58.9115 165.56Z" fill="#88FF99"/>
<path opacity="0.3" d="M58.9115 165.56H59.5115C59.6176 165.56 59.7193 165.518 59.7943 165.443C59.8693 165.368 59.9115 165.266 59.9115 165.16L63.1995 115.6H60.7235L58.5235 165.104C58.5155 165.16 58.5196 165.217 58.5354 165.271C58.5511 165.326 58.5782 165.376 58.6149 165.419C58.6516 165.462 58.697 165.497 58.7481 165.521C58.7992 165.546 58.8549 165.559 58.9115 165.56Z" fill="white"/>
<path d="M52.1107 165.56H52.7107C52.8168 165.56 52.9185 165.518 52.9935 165.443C53.0686 165.368 53.1107 165.266 53.1107 165.16L56.3987 115.6H53.9187L51.7227 165.104C51.7148 165.16 51.7188 165.217 51.7346 165.271C51.7503 165.326 51.7774 165.376 51.8141 165.419C51.8508 165.462 51.8962 165.497 51.9473 165.521C51.9984 165.546 52.0541 165.559 52.1107 165.56Z" fill="#88FF99"/>
<path opacity="0.3" d="M52.1107 165.56H52.7107C52.8168 165.56 52.9185 165.518 52.9935 165.443C53.0686 165.368 53.1107 165.266 53.1107 165.16L56.3987 115.6H53.9187L51.7227 165.104C51.7148 165.16 51.7188 165.217 51.7346 165.271C51.7503 165.326 51.7774 165.376 51.8141 165.419C51.8508 165.462 51.8962 165.497 51.9473 165.521C51.9984 165.546 52.0541 165.559 52.1107 165.56Z" fill="white"/>
<path d="M135.972 165.56H135.372C135.266 165.56 135.164 165.518 135.089 165.443C135.014 165.368 134.972 165.266 134.972 165.16L131.684 115.6H134.16L136.36 165.104C136.368 165.16 136.363 165.217 136.348 165.271C136.332 165.326 136.305 165.376 136.268 165.419C136.232 165.462 136.186 165.497 136.135 165.521C136.084 165.546 136.028 165.559 135.972 165.56Z" fill="#88FF99"/>
<path opacity="0.3" d="M135.972 165.56H135.372C135.266 165.56 135.164 165.518 135.089 165.443C135.014 165.368 134.972 165.266 134.972 165.16L131.684 115.6H134.16L136.36 165.104C136.368 165.16 136.363 165.217 136.348 165.271C136.332 165.326 136.305 165.376 136.268 165.419C136.232 165.462 136.186 165.497 136.135 165.521C136.084 165.546 136.028 165.559 135.972 165.56Z" fill="white"/>
<path d="M142.771 165.56H142.171C142.065 165.56 141.964 165.518 141.889 165.443C141.814 165.368 141.771 165.266 141.771 165.16L138.483 115.6H140.963L143.159 165.104C143.167 165.16 143.163 165.217 143.148 165.271C143.132 165.326 143.105 165.376 143.068 165.419C143.031 165.462 142.986 165.497 142.935 165.521C142.884 165.546 142.828 165.559 142.771 165.56Z" fill="#88FF99"/>
<path opacity="0.3" d="M142.771 165.56H142.171C142.065 165.56 141.964 165.518 141.889 165.443C141.814 165.368 141.771 165.266 141.771 165.16L138.483 115.6H140.963L143.159 165.104C143.167 165.16 143.163 165.217 143.148 165.271C143.132 165.326 143.105 165.376 143.068 165.419C143.031 165.462 142.986 165.497 142.935 165.521C142.884 165.546 142.828 165.559 142.771 165.56Z" fill="white"/>
<path d="M145.631 114.592H49.1113V115.612H145.631V114.592Z" fill="#88FF99"/>
<path d="M47.5034 98.8L46.5914 105.508C46.3034 107.74 46.0034 109.98 45.7914 112.18C45.7634 112.456 45.7434 112.724 45.7194 112.98L45.6874 113.38C45.694 113.313 45.694 113.247 45.6874 113.18C45.6798 113.116 45.6651 113.053 45.6434 112.992C45.6271 112.944 45.607 112.897 45.5834 112.852C45.5675 112.82 45.5487 112.789 45.5274 112.76C45.4554 112.668 45.4474 112.68 45.4674 112.7C45.5083 112.744 45.5539 112.783 45.6034 112.816C45.7717 112.931 45.9482 113.034 46.1314 113.124C47.0834 113.559 48.066 113.924 49.0714 114.216C51.1674 114.852 53.3714 115.416 55.5474 115.94L55.2994 117.848C52.9731 117.778 50.655 117.539 48.3634 117.132C47.1493 116.928 45.9563 116.613 44.7994 116.192C44.4595 116.061 44.1293 115.906 43.8114 115.728C43.6151 115.616 43.4279 115.489 43.2514 115.348C43.0067 115.154 42.7923 114.925 42.6154 114.668C42.488 114.478 42.3858 114.272 42.3114 114.056C42.2705 113.925 42.2384 113.791 42.2154 113.656C42.2007 113.523 42.1927 113.39 42.1914 113.256V112.812C42.1914 112.516 42.1914 112.22 42.2154 111.928C42.3114 109.592 42.5234 107.312 42.7714 105.032C43.0194 102.752 43.3074 100.492 43.6634 98.232L47.5034 98.8Z" fill="#7F3E3B"/>
<path d="M60.5628 118L59.0948 119.34C58.9269 119.493 58.7173 119.592 58.4929 119.624C58.2684 119.657 58.0393 119.622 57.8348 119.524L56.2148 118.744C56.2148 118.744 53.8148 118.644 53.4668 117.176L54.0908 116.036L57.8148 115.636C58.197 115.595 58.5821 115.681 58.9108 115.88L60.4468 116.82C60.5434 116.881 60.6247 116.964 60.6847 117.061C60.7446 117.158 60.7816 117.268 60.7928 117.382C60.804 117.495 60.789 117.61 60.7492 117.717C60.7094 117.825 60.6456 117.921 60.5628 118Z" fill="#7F3E3B"/>
<path d="M51.7799 85.024C52.1799 87.328 52.4839 91.532 50.8359 93.024C50.8359 93.024 54.8359 95.128 57.4879 98.8C60.2879 96.568 57.9479 93.236 57.9479 93.236C55.4119 92.552 55.5479 90.66 56.0319 88.896L51.7799 85.024Z" fill="#7F3E3B"/>
<path d="M59.2962 94.636C59.2962 94.636 59.0842 92.684 58.0202 91.72C57.1282 90.92 52.4202 91.36 50.9522 91.524C50.8159 91.5403 50.6859 91.5906 50.5741 91.6703C50.4622 91.75 50.3722 91.8564 50.3122 91.98L49.2402 94.22L59.2962 94.636Z" fill="#28B661"/>
<path opacity="0.8" d="M59.2962 94.636C59.2962 94.636 59.0842 92.684 58.0202 91.72C57.1282 90.92 52.4202 91.36 50.9522 91.524C50.8159 91.5403 50.6859 91.5906 50.5741 91.6703C50.4622 91.75 50.3722 91.8564 50.3122 91.98L49.2402 94.22L59.2962 94.636Z" fill="white"/>
<path d="M46.2914 93.6C43.3954 94.544 42.7714 98.428 43.0354 101.448L48.8794 105.048C48.8794 105.048 50.2994 100.648 50.2874 98.28C50.2754 95.776 48.2594 92.968 46.2914 93.6Z" fill="#88FF99"/>
<path d="M47.424 104.172C47.3503 104.174 47.2771 104.161 47.2085 104.134C47.1398 104.107 47.0771 104.067 47.024 104.016C47.0002 103.99 46.9787 103.962 46.96 103.932C46.938 103.903 46.9205 103.87 46.908 103.836C46.8949 103.803 46.8843 103.77 46.876 103.736C46.8721 103.701 46.8721 103.667 46.876 103.632C46.8743 103.558 46.8875 103.484 46.915 103.416C46.9425 103.347 46.9837 103.284 47.036 103.232C47.1399 103.134 47.2773 103.08 47.42 103.08C47.5627 103.08 47.7001 103.134 47.804 103.232C47.8563 103.284 47.8975 103.347 47.925 103.416C47.9525 103.484 47.9657 103.558 47.964 103.632C47.9679 103.667 47.9679 103.701 47.964 103.736C47.9578 103.771 47.947 103.804 47.932 103.836C47.9209 103.87 47.9047 103.903 47.884 103.932L47.816 104.016C47.7643 104.067 47.703 104.107 47.6357 104.134C47.5684 104.16 47.4964 104.173 47.424 104.172Z" fill="white"/>
<path d="M46.2996 103.804C46.2002 103.766 46.1142 103.699 46.0524 103.612C45.9905 103.525 45.9555 103.422 45.9516 103.316C45.8732 103.387 45.7756 103.433 45.6709 103.449C45.5663 103.465 45.4594 103.449 45.3636 103.404C45.268 103.359 45.1873 103.288 45.1313 103.199C45.0752 103.109 45.0462 103.006 45.0476 102.9C44.9653 102.967 44.865 103.007 44.7596 103.016C44.6541 103.026 44.5483 103.003 44.4556 102.952C44.3628 102.902 44.2864 102.827 44.2359 102.734C44.1855 102.642 44.1631 102.537 44.1716 102.432C44.085 102.493 43.9825 102.527 43.8766 102.531C43.7707 102.534 43.6661 102.507 43.5756 102.452C43.453 102.377 43.3648 102.257 43.3304 102.118C43.2959 101.979 43.3179 101.831 43.3916 101.708C43.467 101.585 43.5878 101.497 43.7278 101.462C43.8679 101.428 44.0158 101.45 44.1396 101.524C44.2245 101.578 44.2934 101.653 44.3392 101.742C44.3849 101.832 44.4058 101.932 44.3996 102.032C44.4814 101.973 44.578 101.939 44.6785 101.932C44.7789 101.926 44.8791 101.948 44.9676 101.996C45.0562 102.044 45.1298 102.115 45.1806 102.202C45.2314 102.288 45.2574 102.387 45.2556 102.488C45.334 102.425 45.4283 102.386 45.528 102.374C45.6276 102.362 45.7286 102.378 45.8196 102.42C45.9107 102.462 45.9884 102.528 46.0441 102.611C46.0999 102.695 46.1316 102.792 46.1356 102.892C46.2111 102.826 46.3031 102.782 46.4018 102.764C46.5004 102.747 46.602 102.756 46.6956 102.792C46.829 102.845 46.9358 102.949 46.9928 103.081C47.0497 103.213 47.0522 103.362 46.9996 103.496C46.9601 103.597 46.8908 103.685 46.8009 103.746C46.7109 103.807 46.6045 103.84 46.4956 103.84C46.4287 103.839 46.3624 103.827 46.2996 103.804Z" fill="white"/>
<path d="M43.0356 102C42.9998 102.004 42.9635 102.004 42.9277 102C42.8931 101.994 42.8594 101.983 42.8277 101.968C42.7934 101.957 42.7611 101.941 42.7317 101.92L42.6516 101.852C42.6258 101.828 42.6029 101.801 42.5836 101.772C42.5836 101.74 42.5477 101.708 42.5317 101.676C42.5192 101.643 42.5085 101.61 42.4997 101.576C42.4977 101.54 42.4977 101.504 42.4997 101.468C42.4975 101.433 42.4975 101.399 42.4997 101.364C42.5085 101.329 42.5192 101.294 42.5317 101.26C42.5448 101.227 42.5623 101.196 42.5836 101.168C42.6039 101.138 42.6266 101.11 42.6516 101.084L42.7317 101.016C42.762 100.997 42.7941 100.981 42.8277 100.968L42.9277 100.936C43.0149 100.92 43.1046 100.925 43.1895 100.951C43.2743 100.977 43.3518 101.022 43.4157 101.084C43.4407 101.11 43.4634 101.138 43.4836 101.168C43.5033 101.197 43.5207 101.228 43.5356 101.26C43.5487 101.294 43.5581 101.328 43.5637 101.364C43.5678 101.399 43.5678 101.433 43.5637 101.468C43.5676 101.504 43.5676 101.54 43.5637 101.576C43.5581 101.61 43.5487 101.644 43.5356 101.676C43.5356 101.708 43.5036 101.74 43.4836 101.772C43.4644 101.801 43.4415 101.828 43.4157 101.852C43.3127 101.948 43.1766 102.001 43.0356 102Z" fill="white"/>
<path d="M64.7086 99.252C64.4646 102.58 63.7246 108.18 61.9086 117.612L46.2526 117.148C46.6526 111.368 46.0406 107.06 44.6246 96.944C44.5643 96.5063 44.5927 96.0609 44.7081 95.6345C44.8236 95.208 45.0237 94.8091 45.2965 94.4616C45.5694 94.1141 45.9094 93.8251 46.2963 93.6118C46.6832 93.3985 47.1091 93.2652 47.5486 93.22C48.5526 93.116 49.6966 93.032 50.8446 93.008C53.2173 92.9096 55.5939 92.9805 57.9566 93.22C58.7166 93.312 59.5046 93.436 60.2566 93.564C61.5733 93.7882 62.7591 94.4953 63.5823 95.5472C64.4056 96.599 64.8071 97.9199 64.7086 99.252Z" fill="#88FF99"/>
<path d="M59.8788 80.8C59.9148 81.108 60.1108 81.34 60.3108 81.312C60.5108 81.284 60.6468 81.02 60.6108 80.712C60.5748 80.404 60.3788 80.172 60.1788 80.196C59.9788 80.22 59.8428 80.48 59.8788 80.8Z" fill="#263238"/>
<path d="M60.0918 80.216L60.8078 79.912C60.8078 79.912 60.4958 80.536 60.0918 80.216Z" fill="#263238"/>
<path d="M60 81.268C60.3592 81.9395 60.8087 82.5585 61.336 83.108C61.1925 83.24 61.0217 83.3388 60.8358 83.3976C60.6499 83.4563 60.4533 83.4735 60.26 83.448L60 81.268Z" fill="#630F0F"/>
<path d="M59.9147 78.084C59.9305 78.0559 59.9388 78.0242 59.9388 77.992C59.9388 77.9598 59.9305 77.9281 59.9147 77.9C59.8932 77.8568 59.8555 77.8238 59.8099 77.8081C59.7643 77.7923 59.7143 77.7952 59.6707 77.816C59.4054 77.9339 59.1724 78.1139 58.9913 78.3409C58.8103 78.5679 58.6866 78.8351 58.6307 79.12C58.6273 79.1437 58.6287 79.1678 58.6348 79.1909C58.6408 79.214 58.6514 79.2357 58.6659 79.2547C58.6804 79.2737 58.6986 79.2896 58.7193 79.3015C58.7401 79.3134 58.763 79.3211 58.7867 79.324C58.8104 79.3274 58.8345 79.326 58.8576 79.3199C58.8807 79.3139 58.9024 79.3033 58.9214 79.2888C58.9404 79.2743 58.9563 79.2561 58.9682 79.2354C58.9801 79.2146 58.9878 79.1917 58.9907 79.168C59.0394 78.9435 59.1405 78.7336 59.2858 78.5557C59.4311 78.3777 59.6164 78.2366 59.8267 78.144C59.8623 78.1353 59.8936 78.114 59.9147 78.084Z" fill="#263238"/>
<path d="M49.2245 80.72C49.9125 84.484 50.1245 86.092 52.2725 87.812C55.5045 90.396 59.9805 88.728 60.4325 84.832C60.8325 81.324 59.6325 75.756 55.7525 74.692C54.895 74.4535 53.9907 74.4381 53.1255 74.6472C52.2603 74.8564 51.4628 75.2831 50.8089 75.887C50.1549 76.4909 49.6661 77.2518 49.3888 78.0977C49.1116 78.9435 49.055 79.8461 49.2245 80.72Z" fill="#7F3E3B"/>
<path d="M57.5191 81.776C58.1511 83.844 59.6631 88.844 56.3191 89.96C53.7071 90.832 45.5191 91.528 44.5791 86.732C43.6071 81.776 48.0271 78.244 48.0271 78.244C48.0271 78.244 44.5231 75.372 46.7671 72.244C49.6591 68.212 56.5871 70.492 58.6391 73.34C60.6431 76.112 57.5191 81.776 57.5191 81.776Z" fill="#263238"/>
<path d="M51.2004 90.648C49.6917 90.6463 48.1976 90.3529 46.8004 89.784C44.9444 88.984 43.8604 87.748 43.6644 86.208C43.0084 80.98 47.8724 78.108 47.9244 78.08L48.1164 78.412C48.0684 78.44 43.4244 81.188 44.0484 86.16C44.2724 87.924 45.7524 88.912 46.9564 89.428C49.3324 90.452 52.4004 90.444 53.1444 89.9L53.3724 90.212C52.9964 90.496 52.1804 90.648 51.2004 90.648Z" fill="#263238"/>
<path d="M46.5239 77.496C46.4799 78.164 45.9279 79.096 48.2439 79.428C50.5599 79.76 53.7839 79.74 54.4479 79.184C55.1119 78.628 55.7599 77.292 54.3759 77.412C52.9919 77.532 46.5999 76.352 46.5239 77.496Z" fill="#88FF99"/>
<path d="M56.2524 82.364C56.6304 83.0627 57.2685 83.5844 58.0284 83.816C59.0364 84.112 59.5564 83.212 59.2884 82.252C59.0444 81.388 58.2244 80.192 57.2084 80.316C56.1924 80.44 55.8004 81.504 56.2524 82.364Z" fill="#7F3E3B"/>
<path d="M80.6554 161.424L84.3674 161.352L82.5714 152.088L78.8594 152.156L80.6554 161.424Z" fill="#7F3E3B"/>
<path d="M83.439 157.388C84.419 161.088 88.031 164.988 88.031 164.988L82.8789 163.676L80.627 160.476L81.027 159.628L83.439 157.388Z" fill="#7F3E3B"/>
<path d="M79.7796 159.108C79.7692 159.541 79.7946 159.975 79.8556 160.404C80.0756 161.932 80.7476 166.004 80.7476 166.004H81.0996C80.9405 164.764 80.8457 163.517 80.8156 162.268C80.8636 161.264 81.5116 163.04 82.2956 164.048C83.0796 165.056 84.4916 165.972 86.7756 166.048C89.4476 166.132 90.5156 166.02 89.6596 165.352C88.8036 164.684 86.9796 164.252 86.9796 164.252C85.5083 163.622 84.2559 162.571 83.3796 161.232C82.5151 160.029 81.3791 159.046 80.0636 158.364C79.8396 158.376 79.7956 158.8 79.7796 159.108Z" fill="#263238"/>
<path d="M93.804 148.836L98.54 148.984L93.24 141.104L89.96 143.908L93.804 148.836Z" fill="#7F3E3B"/>
<path d="M94.9277 145.492C98.3717 147.092 103.884 146.78 103.884 146.78L99.4037 150.38L95.5597 150.092L95.1597 149.24L94.9277 145.492Z" fill="#7F3E3B"/>
<path d="M94.1999 149.576C94.5101 149.877 94.8446 150.153 95.1999 150.4C96.4559 151.276 99.8519 153.52 99.8519 153.52L100.068 153.244C99.0564 152.517 98.0831 151.739 97.1519 150.912C96.4399 150.184 98.1479 150.892 99.3719 150.964C100.596 151.036 102.14 150.564 103.6 148.804C105.316 146.76 105.888 145.844 104.872 146.06C103.856 146.276 102.408 147.412 102.408 147.412C101.048 148.14 99.4901 148.412 97.9639 148.188C96.5463 148.044 95.1153 148.265 93.8079 148.832C93.6999 149.032 93.9679 149.344 94.1999 149.576Z" fill="#263238"/>
<path d="M56.4395 117.34C56.4395 117.34 81.7835 113.6 84.3995 120.088C88.9675 131.392 95.4115 144.344 95.4115 144.344L92.2995 146.92C92.2995 146.92 81.2475 136.688 77.3195 125.32C72.6235 126.84 57.6835 131.72 52.2115 131.72C46.3675 131.72 43.9795 126.74 46.0915 118.464C46.184 118.109 46.3909 117.795 46.6802 117.57C46.9696 117.345 47.325 117.222 47.6915 117.22C51.3995 117.256 56.4395 117.34 56.4395 117.34Z" fill="#263238"/>
<path d="M58.8682 120.64C58.8682 120.64 79.6682 120.016 79.8482 127.384C80.1362 139.572 83.5722 157.036 83.5722 157.036L79.7762 157.388C79.7762 157.388 73.5722 143.496 71.9322 131.6C64.5242 132.08 57.6922 131.748 52.2202 131.748C46.0882 131.748 45.5802 125.016 51.5482 117.156C55.2002 117.148 58.8682 120.64 58.8682 120.64Z" fill="#263238"/>
<path d="M46.0352 116.22L45.5992 117.6C45.5392 117.708 45.6632 117.82 45.8472 117.828L61.9592 118.304C62.0992 118.304 62.2192 118.244 62.2312 118.156L62.4152 116.76C62.4152 116.66 62.3072 116.576 62.1512 116.572L46.2992 116.1C46.2485 116.094 46.1972 116.103 46.1508 116.124C46.1043 116.145 46.0644 116.178 46.0352 116.22Z" fill="white"/>
<path d="M48.1115 118.056H47.6876C47.6036 118.056 47.5396 118.008 47.5476 117.956L47.7995 116.14C47.7995 116.088 47.8835 116.048 47.9675 116.048H48.3916C48.4756 116.048 48.5396 116.096 48.5316 116.148L48.2795 117.96C48.2715 118.02 48.1955 118.06 48.1115 118.056Z" fill="#263238"/>
<path d="M60.7561 118.436H60.3321C60.2481 118.436 60.1841 118.388 60.1921 118.336L60.4481 116.52C60.4481 116.468 60.5281 116.428 60.6121 116.428H61.0361C61.1241 116.428 61.1841 116.476 61.1801 116.528L60.9241 118.344C60.9161 118.4 60.8441 118.436 60.7561 118.436Z" fill="#263238"/>
<path d="M54.4358 118.244H54.0118C53.9238 118.244 53.8638 118.196 53.8718 118.144L54.1238 116.328C54.1238 116.276 54.2078 116.236 54.2918 116.236H54.7158C54.7998 116.236 54.8638 116.284 54.8558 116.336L54.6038 118.152C54.5958 118.208 54.5198 118.248 54.4358 118.244Z" fill="#263238"/>
<path d="M73.7318 100.644H83.8478C83.923 100.644 83.9971 100.662 84.0643 100.696C84.1316 100.729 84.1901 100.778 84.2355 100.838C84.2808 100.898 84.3116 100.968 84.3255 101.042C84.3394 101.115 84.3361 101.192 84.3158 101.264L80.5318 114.244C80.503 114.345 80.442 114.433 80.3583 114.496C80.2745 114.559 80.1725 114.593 80.0678 114.592H69.9478C69.8723 114.593 69.7978 114.576 69.7302 114.542C69.6626 114.509 69.6038 114.46 69.5586 114.4C69.5134 114.339 69.4831 114.269 69.4701 114.195C69.4571 114.12 69.4618 114.044 69.4838 113.972L73.2638 100.992C73.2933 100.891 73.355 100.802 73.4395 100.74C73.5239 100.677 73.6265 100.643 73.7318 100.644Z" fill="#88FF99"/>
<path d="M73.9152 101.12L83.7513 101.352L79.8672 113.596L70.0312 113.36L73.9152 101.12Z" fill="#E0E0E0"/>
<path d="M73.6069 101L83.4429 101.04L79.7989 113.356L69.9629 113.316L73.6069 101Z" fill="white"/>
<path d="M64.7353 101.256C64.7353 101.656 64.7953 102.128 64.8273 102.572C64.8593 103.016 64.9193 103.48 64.9793 103.932C65.0913 104.836 65.2406 105.727 65.4273 106.604C65.6068 107.459 65.8446 108.301 66.1393 109.124C66.2873 109.524 66.4513 109.924 66.6273 110.276C66.7153 110.46 66.8113 110.632 66.9073 110.808L67.0553 111.052C67.2389 111.219 67.4556 111.346 67.6913 111.424C68.0658 111.569 68.4509 111.686 68.8433 111.772C69.7265 111.958 70.6201 112.092 71.5193 112.172C73.3673 112.352 75.2993 112.44 77.1873 112.48L77.3793 114.396C75.4134 114.786 73.4186 115.012 71.4153 115.072C70.3749 115.104 69.3335 115.061 68.2993 114.944C67.7326 114.875 67.1722 114.761 66.6233 114.604C65.9215 114.418 65.2688 114.081 64.7113 113.616C64.5246 113.454 64.3556 113.273 64.2073 113.076L63.9513 112.716C63.7873 112.476 63.6273 112.236 63.4913 111.992C63.2062 111.516 62.9536 111.022 62.7353 110.512C62.3082 109.534 61.963 108.523 61.7033 107.488C61.4443 106.482 61.2453 105.462 61.1073 104.432C61.0393 103.924 60.9873 103.412 60.9433 102.896C60.8993 102.38 60.8713 101.888 60.8633 101.296L64.7353 101.256Z" fill="#7F3E3B"/>
<path d="M63.4189 95.356C65.9389 97.728 65.3309 103.908 65.3309 103.908L60.5069 104.752C60.5069 104.752 57.5269 100.32 58.5749 98.464C59.6629 96.528 62.0589 94.072 63.4189 95.356Z" fill="#88FF99"/>
<path d="M65.3324 104.452C65.2585 104.453 65.185 104.44 65.1163 104.412C65.0476 104.385 64.9851 104.344 64.9324 104.292C64.9067 104.267 64.8839 104.238 64.8644 104.208C64.8461 104.179 64.83 104.148 64.8164 104.116C64.8083 104.078 64.8029 104.039 64.8004 104C64.7983 103.965 64.7983 103.931 64.8004 103.896C64.7979 103.822 64.8105 103.749 64.8373 103.68C64.8641 103.611 64.9047 103.549 64.9564 103.496C64.9826 103.471 65.0107 103.448 65.0404 103.428C65.0689 103.408 65.0998 103.392 65.1324 103.38C65.1659 103.366 65.2007 103.355 65.2364 103.348C65.315 103.333 65.3961 103.335 65.4737 103.355C65.5514 103.374 65.6237 103.411 65.6856 103.462C65.7475 103.512 65.7974 103.576 65.8318 103.649C65.8662 103.721 65.8841 103.8 65.8844 103.88C65.8886 103.915 65.8886 103.949 65.8844 103.984C65.878 104.02 65.8673 104.055 65.8524 104.088C65.8405 104.121 65.8244 104.152 65.8044 104.18C65.785 104.21 65.7622 104.239 65.7364 104.264C65.686 104.322 65.624 104.369 65.5544 104.401C65.4848 104.433 65.4092 104.451 65.3324 104.452Z" fill="white"/>
<path d="M60.9473 104.74C60.9351 104.596 60.9805 104.454 61.0735 104.343C61.1665 104.233 61.2995 104.164 61.4433 104.152C61.5434 104.143 61.6442 104.162 61.734 104.207C61.8239 104.252 61.8991 104.322 61.9513 104.408C61.9835 104.313 62.0412 104.228 62.118 104.163C62.1949 104.098 62.288 104.056 62.3873 104.04C62.4871 104.027 62.5887 104.041 62.6811 104.081C62.7734 104.121 62.853 104.186 62.9113 104.268C62.934 104.171 62.9835 104.082 63.0542 104.011C63.1249 103.94 63.2139 103.891 63.3113 103.868C63.41 103.847 63.5125 103.855 63.6073 103.889C63.702 103.924 63.7851 103.985 63.8473 104.064C63.8708 103.967 63.9206 103.878 63.9912 103.808C64.0617 103.737 64.1503 103.688 64.2473 103.664C64.3172 103.646 64.39 103.641 64.4616 103.651C64.5332 103.662 64.602 103.686 64.6639 103.724C64.7258 103.761 64.7796 103.81 64.8221 103.869C64.8646 103.927 64.8949 103.994 64.9113 104.064C64.9292 104.134 64.933 104.207 64.9225 104.278C64.912 104.349 64.8875 104.418 64.8503 104.48C64.813 104.542 64.7639 104.595 64.7057 104.638C64.6475 104.681 64.5814 104.711 64.5113 104.728C64.4091 104.754 64.3016 104.75 64.2015 104.717C64.1015 104.684 64.0132 104.622 63.9473 104.54C63.9247 104.643 63.8727 104.738 63.7974 104.813C63.7222 104.887 63.627 104.938 63.5233 104.96C63.4195 104.979 63.3123 104.969 63.2145 104.929C63.1166 104.889 63.0322 104.822 62.9713 104.736C62.9448 104.839 62.8886 104.932 62.8096 105.003C62.7307 105.074 62.6324 105.12 62.5273 105.136C62.4225 105.151 62.3156 105.135 62.2197 105.09C62.1238 105.046 62.043 104.974 61.9873 104.884C61.953 104.984 61.8906 105.072 61.8076 105.137C61.7246 105.202 61.6244 105.242 61.5193 105.252H61.4753C61.3394 105.247 61.2102 105.192 61.1126 105.098C61.015 105.003 60.9561 104.876 60.9473 104.74Z" fill="white"/>
<path d="M60.5078 105.296C60.4719 105.3 60.4357 105.3 60.3998 105.296L60.2998 105.264C60.2666 105.25 60.2345 105.234 60.2038 105.216L60.1238 105.148C60.0969 105.124 60.0739 105.095 60.0558 105.064C60.0361 105.035 60.0187 105.004 60.0038 104.972C59.9907 104.938 59.9813 104.904 59.9758 104.868C59.9716 104.833 59.9716 104.798 59.9758 104.764C59.9718 104.728 59.9718 104.692 59.9758 104.656C59.9814 104.622 59.9908 104.588 60.0038 104.556C60.0038 104.524 60.0358 104.492 60.0558 104.46C60.075 104.431 60.0979 104.404 60.1238 104.38L60.2038 104.312C60.2336 104.292 60.2659 104.276 60.2998 104.264C60.3315 104.249 60.3652 104.238 60.3998 104.232C60.487 104.214 60.5773 104.218 60.6625 104.244C60.7477 104.27 60.8251 104.317 60.8878 104.38C60.9137 104.404 60.9365 104.431 60.9558 104.46C60.9758 104.492 60.9918 104.524 61.0078 104.556C61.0202 104.589 61.0309 104.622 61.0398 104.656C61.0418 104.692 61.0418 104.728 61.0398 104.764C61.0419 104.799 61.0419 104.833 61.0398 104.868C61.0309 104.903 61.0203 104.938 61.0078 104.972C60.9928 105.004 60.9754 105.035 60.9558 105.064C60.9366 105.095 60.9137 105.123 60.8878 105.148C60.7849 105.244 60.6488 105.297 60.5078 105.296Z" fill="white"/>
<path d="M81.6802 110.488L80.0082 110.376C79.5919 110.347 79.1778 110.458 78.8322 110.692L75.7642 112.752L75.7402 114.052C76.7242 115.196 78.9002 114.172 78.9002 114.172L80.9202 114.104C81.0812 114.1 81.2372 114.047 81.3678 113.953C81.4984 113.859 81.5975 113.727 81.6522 113.576L82.3842 111.576C82.4299 111.458 82.447 111.331 82.4341 111.205C82.4212 111.079 82.3786 110.958 82.3099 110.852C82.2412 110.746 82.1484 110.658 82.0389 110.594C81.9294 110.531 81.8065 110.495 81.6802 110.488Z" fill="#7F3E3B"/>
<path d="M47.0356 167.364H47.4876C47.5813 167.355 47.6688 167.313 47.7346 167.246C47.8005 167.178 47.8405 167.09 47.8476 166.996L50.6476 147.62H48.5316L46.6876 166.868C46.6767 166.924 46.6771 166.981 46.6888 167.036C46.7006 167.091 46.7234 167.144 46.7559 167.19C46.7884 167.236 46.8299 167.276 46.878 167.306C46.926 167.336 46.9796 167.355 47.0356 167.364Z" fill="#88FF99"/>
<path opacity="0.3" d="M47.0356 167.364H47.4876C47.5813 167.355 47.6688 167.313 47.7346 167.246C47.8005 167.178 47.8405 167.09 47.8476 166.996L50.6476 147.62H48.5316L46.6876 166.868C46.6767 166.924 46.6771 166.981 46.6888 167.036C46.7006 167.091 46.7234 167.144 46.7559 167.19C46.7884 167.236 46.8299 167.276 46.878 167.306C46.926 167.336 46.9796 167.355 47.0356 167.364Z" fill="black"/>
<path d="M41.2348 167.364H41.6868C41.7805 167.355 41.868 167.313 41.9338 167.246C41.9997 167.178 42.0397 167.09 42.0468 166.996L44.8468 147.62H42.7308L40.8868 166.868C40.8759 166.924 40.8763 166.981 40.888 167.036C40.8998 167.091 40.9226 167.144 40.9551 167.19C40.9876 167.236 41.0291 167.276 41.0772 167.306C41.1252 167.336 41.1788 167.355 41.2348 167.364Z" fill="#88FF99"/>
<path opacity="0.3" d="M41.2348 167.364H41.6868C41.7805 167.355 41.868 167.313 41.9338 167.246C41.9997 167.178 42.0397 167.09 42.0468 166.996L44.8468 147.62H42.7308L40.8868 166.868C40.8759 166.924 40.8763 166.981 40.888 167.036C40.8998 167.091 40.9226 167.144 40.9551 167.19C40.9876 167.236 41.0291 167.276 41.0772 167.306C41.1252 167.336 41.1788 167.355 41.2348 167.364Z" fill="black"/>
<path d="M73.5554 167.364H73.0994C73.0064 167.354 72.9198 167.312 72.8548 167.244C72.7897 167.177 72.7503 167.089 72.7434 166.996L69.9434 147.62H72.0554L73.8994 166.868C73.9103 166.923 73.91 166.98 73.8985 167.035C73.887 167.09 73.8646 167.143 73.8325 167.189C73.8004 167.235 73.7593 167.275 73.7117 167.305C73.6641 167.335 73.6109 167.355 73.5554 167.364Z" fill="#88FF99"/>
<path opacity="0.3" d="M73.5554 167.364H73.0994C73.0064 167.354 72.9198 167.312 72.8548 167.244C72.7897 167.177 72.7503 167.089 72.7434 166.996L69.9434 147.62H72.0554L73.8994 166.868C73.9103 166.923 73.91 166.98 73.8985 167.035C73.887 167.09 73.8646 167.143 73.8325 167.189C73.8004 167.235 73.7593 167.275 73.7117 167.305C73.6641 167.335 73.6109 167.355 73.5554 167.364Z" fill="black"/>
<path d="M79.3561 167.364H78.9001C78.8071 167.354 78.7206 167.312 78.6555 167.244C78.5905 167.177 78.5511 167.089 78.5441 166.996L75.7441 147.62H77.8561L79.7001 166.868C79.7111 166.923 79.7108 166.98 79.6993 167.035C79.6878 167.09 79.6653 167.143 79.6333 167.189C79.6012 167.235 79.5601 167.275 79.5125 167.305C79.4649 167.335 79.4117 167.355 79.3561 167.364Z" fill="#88FF99"/>
<path opacity="0.3" d="M79.3561 167.364H78.9001C78.8071 167.354 78.7206 167.312 78.6555 167.244C78.5905 167.177 78.5511 167.089 78.5441 166.996L75.7441 147.62H77.8561L79.7001 166.868C79.7111 166.923 79.7108 166.98 79.6993 167.035C79.6878 167.09 79.6653 167.143 79.6333 167.189C79.6012 167.235 79.5601 167.275 79.5125 167.305C79.4649 167.335 79.4117 167.355 79.3561 167.364Z" fill="black"/>
<path d="M86.8717 124.652H72.6317C70.1037 115.876 61.0317 108.956 51.7037 108.956H47.0797C37.3357 108.956 31.0477 116.556 33.0317 125.892C33.4073 127.612 34.017 129.273 34.8437 130.828L37.0917 144.428C37.3797 146.184 38.7837 147.608 40.2197 147.608H83.0837C84.5197 147.608 85.9237 146.184 86.2117 144.428L88.9517 127.82C89.2437 126.076 88.3117 124.652 86.8717 124.652Z" fill="#88FF99"/>
<path opacity="0.5" d="M86.8717 124.652H72.6317C70.1037 115.876 61.0317 108.956 51.7037 108.956H47.0797C37.3357 108.956 31.0477 116.556 33.0317 125.892C33.4073 127.612 34.017 129.273 34.8437 130.828L37.0917 144.428C37.3797 146.184 38.7837 147.608 40.2197 147.608H83.0837C84.5197 147.608 85.9237 146.184 86.2117 144.428L88.9517 127.82C89.2437 126.076 88.3117 124.652 86.8717 124.652Z" fill="white"/>
<path d="M85.016 60.86H81.748V61.26H85.016V60.86Z" fill="#88FF99"/>
<path d="M69.7281 65.572H69.3281V63.6C69.3292 62.8718 69.6192 62.1739 70.1344 61.6594C70.6496 61.1449 71.348 60.856 72.0761 60.856H79.3681V61.256H72.0761C71.4541 61.256 70.8575 61.5028 70.4172 61.9423C69.977 62.3817 69.7292 62.9779 69.7281 63.6V65.572Z" fill="#88FF99"/>
<path d="M72.0765 62.26H108.545C108.901 62.26 109.243 62.4016 109.495 62.6536C109.747 62.9057 109.889 63.2475 109.889 63.604V77.904C109.889 78.2615 109.746 78.6043 109.494 78.8571C109.241 79.1099 108.898 79.252 108.541 79.252H72.0765C71.719 79.252 71.3761 79.1099 71.1233 78.8571C70.8705 78.6043 70.7285 78.2615 70.7285 77.904V63.6C70.729 63.4235 70.7643 63.2488 70.8323 63.0859C70.9004 62.9231 70.9998 62.7752 71.125 62.6508C71.2502 62.5263 71.3986 62.4278 71.5619 62.3607C71.7251 62.2937 71.9 62.2594 72.0765 62.26Z" fill="#88FF99"/>
<path d="M106.82 71.66H73.8005C73.5607 71.66 73.3308 71.5647 73.1613 71.3952C72.9917 71.2257 72.8965 70.9957 72.8965 70.756C72.8965 70.5162 72.9917 70.2863 73.1613 70.1168C73.3308 69.9472 73.5607 69.852 73.8005 69.852H106.82C107.06 69.852 107.29 69.9472 107.46 70.1168C107.629 70.2863 107.724 70.5162 107.724 70.756C107.724 70.9957 107.629 71.2257 107.46 71.3952C107.29 71.5647 107.06 71.66 106.82 71.66Z" fill="white"/>
<path d="M99.7525 75.416H73.8005C73.5608 75.416 73.3308 75.3207 73.1613 75.1512C72.9918 74.9817 72.8965 74.7517 72.8965 74.512C72.8955 74.3926 72.9181 74.2742 72.963 74.1636C73.008 74.053 73.0744 73.9524 73.1584 73.8676C73.2425 73.7828 73.3425 73.7155 73.4527 73.6695C73.5629 73.6236 73.6811 73.6 73.8005 73.6H99.7525C99.9923 73.6 100.222 73.6952 100.392 73.8648C100.561 74.0343 100.657 74.2642 100.657 74.504C100.658 74.6234 100.635 74.7418 100.59 74.8524C100.545 74.963 100.479 75.0636 100.395 75.1484C100.311 75.2332 100.211 75.3005 100.1 75.3464C99.9901 75.3923 99.8719 75.416 99.7525 75.416Z" fill="white"/>
<path d="M84.9365 67.904H73.8005C73.5607 67.904 73.3308 67.8088 73.1613 67.6392C72.9917 67.4697 72.8965 67.2398 72.8965 67C72.8965 66.7603 72.9917 66.5303 73.1613 66.3608C73.3308 66.1912 73.5607 66.096 73.8005 66.096H84.9365C85.1762 66.096 85.4062 66.1912 85.5757 66.3608C85.7452 66.5303 85.8405 66.7603 85.8405 67C85.8405 67.2398 85.7452 67.4697 85.5757 67.6392C85.4062 67.8088 85.1762 67.904 84.9365 67.904Z" fill="white"/>
<path d="M99.6963 67.904H88.5602C88.3205 67.904 88.0906 67.8088 87.921 67.6392C87.7515 67.4697 87.6562 67.2398 87.6562 67C87.6562 66.7603 87.7515 66.5303 87.921 66.3608C88.0906 66.1912 88.3205 66.096 88.5602 66.096H99.6963C99.936 66.096 100.166 66.1912 100.335 66.3608C100.505 66.5303 100.6 66.7603 100.6 67C100.6 67.2398 100.505 67.4697 100.335 67.6392C100.166 67.8088 99.936 67.904 99.6963 67.904Z" fill="white"/>
<path d="M72.8965 78.168V82.5C72.8965 82.6857 72.9482 82.8678 73.0458 83.0257C73.1435 83.1837 73.2832 83.3114 73.4493 83.3944C73.6154 83.4775 73.8013 83.5126 73.9863 83.496C74.1712 83.4793 74.3479 83.4114 74.4965 83.3L81.1365 78.164L72.8965 78.168Z" fill="#88FF99"/>
<path d="M129.125 40.8H92.6566C92.4796 40.8 92.3043 40.8349 92.1407 40.9026C91.9772 40.9703 91.8286 41.0696 91.7034 41.1948C91.5782 41.32 91.4789 41.4686 91.4112 41.6321C91.3435 41.7957 91.3086 41.971 91.3086 42.148V56.448C91.3086 56.8055 91.4506 57.1484 91.7034 57.4012C91.9562 57.654 92.2991 57.796 92.6566 57.796H121.457L126.681 61.836C126.829 61.9474 127.006 62.0153 127.191 62.0319C127.376 62.0486 127.562 62.0135 127.728 61.9304C127.894 61.8474 128.034 61.7197 128.131 61.5617C128.229 61.4037 128.281 61.2217 128.281 61.036V57.788H129.101C129.458 57.788 129.801 57.646 130.054 57.3932C130.307 57.1404 130.449 56.7975 130.449 56.44V42.148C130.449 41.7946 130.31 41.4553 130.062 41.2032C129.815 40.9511 129.478 40.8063 129.125 40.8Z" fill="white"/>
<path d="M127.3 62.248C127.034 62.2462 126.776 62.1578 126.564 61.996L121.396 57.996H92.6564C92.2462 57.9949 91.853 57.8315 91.563 57.5414C91.2729 57.2513 91.1095 56.8582 91.1084 56.448V42.148C91.1095 41.7377 91.2729 41.3446 91.563 41.0545C91.853 40.7645 92.2462 40.601 92.6564 40.6H129.124C129.535 40.601 129.928 40.7645 130.218 41.0545C130.508 41.3446 130.671 41.7377 130.672 42.148V56.448C130.671 56.8582 130.508 57.2513 130.218 57.5414C129.928 57.8315 129.535 57.9949 129.124 57.996H128.504V61.044C128.504 61.3622 128.378 61.6675 128.153 61.8925C127.928 62.1175 127.623 62.244 127.304 62.244L127.3 62.248ZM92.6564 41C92.3523 41.001 92.0609 41.1223 91.8458 41.3374C91.6307 41.5524 91.5095 41.8438 91.5084 42.148V56.448C91.5095 56.7521 91.6307 57.0435 91.8458 57.2586C92.0609 57.4736 92.3523 57.5949 92.6564 57.596H121.536L126.8 61.676C126.919 61.7694 127.061 61.8275 127.211 61.8437C127.36 61.8598 127.512 61.8334 127.647 61.7674C127.782 61.7013 127.896 61.5984 127.976 61.4704C128.055 61.3424 128.097 61.1946 128.096 61.044V57.6H129.116C129.421 57.5989 129.712 57.4776 129.927 57.2626C130.142 57.0475 130.263 56.7561 130.264 56.452V42.148C130.263 41.8438 130.142 41.5524 129.927 41.3374C129.712 41.1223 129.421 41.001 129.116 41H92.6564Z" fill="#88FF99"/>
<path d="M110.112 50.204H127.4C127.519 50.204 127.636 50.1806 127.746 50.1352C127.856 50.0897 127.955 50.0231 128.039 49.9392C128.123 49.8552 128.19 49.7556 128.235 49.6459C128.281 49.5362 128.304 49.4187 128.304 49.3C128.302 49.0612 128.206 48.8329 128.037 48.6645C127.867 48.496 127.639 48.401 127.4 48.4H110.112C109.872 48.401 109.642 48.4972 109.473 48.6673C109.303 48.8375 109.208 49.0678 109.208 49.308C109.21 49.5463 109.306 49.7742 109.476 49.942C109.645 50.1098 109.874 50.204 110.112 50.204Z" fill="#88FF99"/>
<path d="M98.0397 50.204H106.6C106.718 50.204 106.836 50.1806 106.946 50.1352C107.055 50.0897 107.155 50.0231 107.239 49.9392C107.323 49.8552 107.39 49.7556 107.435 49.6459C107.48 49.5362 107.504 49.4187 107.504 49.3C107.502 49.0612 107.406 48.8329 107.236 48.6645C107.067 48.496 106.838 48.401 106.6 48.4H98.0397C97.7996 48.401 97.5697 48.4972 97.4003 48.6673C97.2309 48.8375 97.1357 49.0678 97.1357 49.308C97.1379 49.5463 97.234 49.7742 97.4033 49.942C97.5726 50.1098 97.8014 50.204 98.0397 50.204Z" fill="#88FF99"/>
<path d="M101.444 53.96H127.4C127.899 53.96 128.304 53.5552 128.304 53.056C128.304 52.5567 127.899 52.152 127.4 52.152H101.444C100.944 52.152 100.54 52.5567 100.54 53.056C100.54 53.5552 100.944 53.96 101.444 53.96Z" fill="#88FF99"/>
<path d="M94.4001 46.448H127.4C127.64 46.448 127.87 46.3527 128.039 46.1832C128.209 46.0137 128.304 45.7837 128.304 45.544C128.304 45.3039 128.209 45.0735 128.04 44.9033C127.87 44.7332 127.64 44.637 127.4 44.636H94.4001C94.16 44.637 93.93 44.7332 93.7606 44.9033C93.5912 45.0735 93.4961 45.3039 93.4961 45.544C93.4961 45.7837 93.5913 46.0137 93.7609 46.1832C93.9304 46.3527 94.1603 46.448 94.4001 46.448Z" fill="#88FF99"/>
</svg>
